<?xml version="1.0" encoding="UTF-8" standalone="no"?>
<!-- Created with Inkscape (http://www.inkscape.org/) -->

<svg
   xmlns:dc="http://purl.org/dc/elements/1.1/"
   xmlns:cc="http://creativecommons.org/ns#"
   xmlns:rdf="http://www.w3.org/1999/02/22-rdf-syntax-ns#"
   xmlns:svg="http://www.w3.org/2000/svg"
   xmlns="http://www.w3.org/2000/svg"
   xmlns:sodipodi="http://sodipodi.sourceforge.net/DTD/sodipodi-0.dtd"
   xmlns:inkscape="http://www.inkscape.org/namespaces/inkscape"
   inkscape:version="0.48.5 r10040"
   version="1.1"
   id="svg5773"
   height="128.27435"
   width="101.07079"
   sodipodi:docname="New document 3">
  <sodipodi:namedview
     id="base"
     pagecolor="#ffffff"
     bordercolor="#666666"
     borderopacity="1.0"
     inkscape:pageopacity="0.0"
     inkscape:pageshadow="2"
     inkscape:zoom="4"
     inkscape:cx="64.262247"
     inkscape:cy="107.36117"
     inkscape:document-units="px"
     inkscape:current-layer="layer1"
     showgrid="false"
     inkscape:window-width="1920"
     inkscape:window-height="1028"
     inkscape:window-x="-6"
     inkscape:window-y="-6"
     inkscape:window-maximized="1"
     fit-margin-top="1"
     fit-margin-left="1"
     fit-margin-right="1"
     fit-margin-bottom="1" />
  <defs
     id="defs5775" />
  <metadata
     id="metadata5778">
    <rdf:RDF>
      <cc:Work
         rdf:about="">
        <dc:format>image/svg+xml</dc:format>
        <dc:type
           rdf:resource="http://purl.org/dc/dcmitype/StillImage" />
        <dc:title></dc:title>
      </cc:Work>
    </rdf:RDF>
  </metadata>
  <g
     id="layer1"
     inkscape:groupmode="layer"
     inkscape:label="Layer 1"
     transform="translate(-587.13457,-481.50671)">
    <path
       id="path7396"
       title="50*cos(x/12)*sin(x)"
       d="m 588.42287,496.85572 c 0.2431,-3.51535 0.48619,-3.18795 0.72929,0.849 0.2431,4.03694 0.4862,11.77764 0.72929,21.65711 0.2431,9.87947 0.4862,21.85111 0.72929,33.57405 0.2431,11.72295 0.4862,23.12993 0.7293,32.06331 0.24309,8.93337 0.48619,15.33342 0.72929,18.08674 0.24309,2.75332 0.48619,1.83198 0.72929,-2.42207 0.2431,-4.25404 0.48619,-11.82676 0.72929,-21.11525 0.2431,-9.28849 0.4862,-20.24444 0.72929,-30.70295 0.2431,-10.45851 0.4862,-20.3586 0.72929,-27.86917 0.2431,-7.51056 0.4862,-12.58377 0.7293,-14.43703 0.24309,-1.85326 0.48619,-0.47083 0.72929,3.6339 0.2431,4.10474 0.48619,10.91102 0.72929,18.90622 0.2431,7.99521 0.48619,17.13337 0.72929,25.58811 0.2431,8.45474 0.4862,16.17608 0.72929,21.78754 0.2431,5.61147 0.4862,9.0805 0.72929,9.99726 0.2431,0.91676 0.4862,-0.72156 0.7293,-4.28732 0.24309,-3.56576 0.48619,-9.0336 0.72929,-15.10797 0.2431,-6.07437 0.48619,-12.71553 0.72929,-18.57459 0.2431,-5.85906 0.48619,-10.90094 0.72929,-14.29555 0.2431,-3.39461 0.4862,-5.12684 0.72929,-5.16865 0.2431,-0.0418 0.4862,1.5971 0.7293,4.24618 0.24309,2.64908 0.48619,6.281 0.72929,9.93189 0.24309,3.65089 0.48619,7.29081 0.72929,10.15274 0.2431,2.86193 0.48619,4.92853 0.72929,5.96512 0.2431,1.03659 0.48619,1.04638 0.72929,0.35983 0.2431,-0.68656 0.4862,-2.04864 0.72929,-3.45135 0.2431,-1.40271 0.4862,-2.81962 0.7293,-3.71106 0.24309,-0.89145 0.48619,-1.24016 0.72929,-0.9226 0.24309,0.31757 0.48619,1.29955 0.72929,2.58175 0.2431,1.28219 0.48619,2.8437 0.72929,4.04768 0.2431,1.20399 0.48619,2.02085 0.72929,1.9292 0.2431,-0.0916 0.4862,-1.1145 0.72929,-3.12196 0.2431,-2.00745 0.4862,-5.0022 0.7293,-8.4505 0.24309,-3.4483 0.48619,-7.3291 0.72929,-10.72084 0.24309,-3.39174 0.48619,-6.25778 0.72929,-7.73021 0.2431,-1.47243 0.48619,-1.51582 0.72929,0.20839 0.2431,1.7242 0.4862,5.23242 0.72929,10.06641 0.2431,4.834 0.4862,10.98107 0.72929,17.28555 0.2431,6.30448 0.4862,12.72756 0.7293,17.87284 0.24309,5.14528 0.48619,8.96347 0.72929,10.44648 0.24309,1.48301 0.48619,0.59292 0.72929,-2.77246 0.2431,-3.36539 0.48619,-9.21428 0.72929,-16.59129 0.2431,-7.37701 0.4862,-16.25454 0.72929,-24.93704 0.2431,-8.68251 0.4862,-17.11624 0.72929,-23.54614 0.2431,-6.4299 0.4862,-10.79805 0.7293,-12.05404 0.24309,-1.256 0.48619,0.63713 0.72929,5.51345 0.24309,4.87631 0.48619,12.73458 0.72929,22.17687 0.2431,9.44229 0.48619,20.42778 0.72929,30.84378 0.2431,10.416 0.4862,20.19782 0.72929,27.37191 0.2431,7.17409 0.4862,11.67853 0.72929,12.51646 0.2431,0.83793 0.4862,-2.02345 0.7293,-8.14394 0.24309,-6.1205 0.48619,-15.4891 0.72929,-26.35686 0.2431,-10.86776 0.48619,-23.18342 0.72929,-34.57137 0.2431,-11.38795 0.48619,-21.77737 0.72929,-29.12909 0.2431,-7.35172 0.4862,-11.6046 0.72929,-11.90079 0.2431,-0.29619 0.4862,3.39026 0.72929,10.36607 0.2431,6.97582 0.4862,17.22084 0.7293,28.75726 0.24309,11.53643 0.48619,24.30633 0.72929,35.8452 0.2431,11.53888 0.48619,21.7751 0.72929,28.75726 0.2431,6.98217 0.48619,10.65458 0.72929,10.36608 0.2431,-0.28851 0.4862,-4.55502 0.72929,-11.90079 0.2431,-7.34578 0.4862,-17.74301 0.72929,-29.12909 0.2431,-11.38608 0.4862,-23.70077 0.7293,-34.57137 0.24309,-10.8706 0.48619,-20.23007 0.72929,-26.35686 0.2431,-6.12679 0.48619,-8.97474 0.72929,-8.14394 0.2431,0.8308 0.48619,5.34748 0.72929,12.51646 0.2431,7.16897 0.4862,16.95709 0.72929,27.37191 0.2431,10.41482 0.4862,21.39847 0.7293,30.84378 0.24309,9.4453 0.48619,17.29479 0.72929,22.17687 0.24309,4.88208 0.48619,6.76338 0.72929,5.51345 0.2431,-1.24993 0.48619,-5.62809 0.72929,-12.05405 0.2431,-6.42595 0.48619,-14.86408 0.72929,-23.54613 0.2431,-8.68205 0.4862,-17.55712 0.72929,-24.93704 0.2431,-7.37992 0.4862,-13.22112 0.7293,-16.59129 0.24309,-3.37017 0.48619,-4.25091 0.72929,-2.77246 0.24309,1.47845 0.48619,5.30373 0.72929,10.44647 0.2431,5.14275 0.48619,11.56812 0.72929,17.87285 0.2431,6.30472 0.4862,12.44903 0.72929,17.28554 0.2431,4.83652 0.4862,8.3388 0.72929,10.06642 0.2431,1.72762 0.4862,1.67808 0.7293,0.20839 0.24309,-1.4697 0.48619,-4.33948 0.72929,-7.73021 0.24309,-3.39074 0.48619,-7.27171 0.72929,-10.72084 0.2431,-3.44913 0.48619,-6.44117 0.72929,-8.45051 0.2431,-2.00933 0.4862,-3.02854 0.72929,-3.12195 0.2431,-0.0934 0.4862,0.72593 0.72929,1.92919 0.2431,1.20326 0.4862,2.76496 0.7293,4.04769 0.24309,1.28273 0.48619,2.26293 0.72929,2.58175 0.24309,0.31881 0.48619,-0.0322 0.72929,-0.9226 0.2431,-0.89044 0.48619,-2.30828 0.72929,-3.71106 0.2431,-1.40278 0.4862,-2.76347 0.72929,-3.45135 0.2431,-0.68788 0.4862,-0.6748 0.72929,0.35983 0.2431,1.03462 0.4862,3.10467 0.7293,5.96511 0.24309,2.86045 0.48619,6.50182 0.72929,10.15275 0.2431,3.65093 0.48619,7.28086 0.72929,9.93189 0.2431,2.65102 0.48619,4.28473 0.72929,4.24617 0.2431,-0.0385 0.4862,-1.77721 0.72929,-5.16864 0.2431,-3.39143 0.4862,-8.43801 0.72929,-14.29555 0.2431,-5.85755 0.4862,-12.49905 0.7293,-18.57459 0.24309,-6.07553 0.48619,-11.53849 0.72929,-15.10797 0.2431,-3.56949 0.48619,-5.19915 0.72929,-4.28732 0.2431,0.91182 0.48619,4.38988 0.72929,9.99725 0.2431,5.60737 0.4862,13.33415 0.72929,21.78755 0.2431,8.4534 0.4862,17.59061 0.72929,25.5881 0.2431,7.99749 0.4862,14.79623 0.7293,18.90622 0.24309,4.11 0.48619,5.48092 0.72929,3.63391 0.2431,-1.84702 0.48619,-6.93112 0.72929,-14.43704 0.2431,-7.50591 0.48619,-17.41165 0.72929,-27.86916 0.2431,-10.45751 0.4862,-21.41117 0.72929,-30.70295 0.2431,-9.29178 0.4862,-16.85477 0.7293,-21.11526 0.24309,-4.26048 0.48619,-5.1683 0.72929,-2.42207 0.24309,2.74624 0.48619,9.15821 0.72929,18.08675 0.2431,8.92854 0.48619,20.34089 0.72929,32.06331 0.2431,11.72241 0.48619,23.69047 0.72929,33.57405 0.2431,9.88358 0.4862,17.61299 0.72929,21.65711 0.2431,4.04412 0.4862,4.35695 0.7293,0.84899 0.24309,-3.50795 0.48619,-10.83976 0.72929,-20.58777 0.24309,-9.74801 0.48619,-21.87098 0.72929,-34.02584"
       style="fill:none;stroke:#000000;stroke-width:0.5;stroke-miterlimit:4;stroke-opacity:1;stroke-dasharray:none"
       inkscape:connector-curvature="0"
       sodipodi:nodetypes="cssssssssssssssssssscssssssccsscsssssssssssssssssscsssscsssscssssssssssssssssssssssscssscsccssscsssssssssssssssssssssc" />
    <path
       style="fill:none;stroke:#000000;stroke-width:1;stroke-linecap:butt;stroke-linejoin:miter;stroke-miterlimit:4;stroke-opacity:1;stroke-dasharray:none"
       d="m 588.63457,493.79973 c 0,0 0.8995,5.61208 2.3304,9.39589 1.63607,4.32636 3.31738,5.74178 4.2786,5.82447 0.82404,0.0709 0.23235,-4.1084 0.78639,-3.36068 0.42282,0.57063 1.64223,6.83839 2.1212,9.468 0.71393,3.91957 1.23043,6.57217 2.5,9.63914 0.64012,1.54637 1.41615,2.09497 2.54332,4.32904 1.12717,2.23407 2.00282,5.87884 2.53775,9.31635 0.45631,2.93224 5.32017,11.31383 5.93094,11.25404 1.05222,-0.103 1.6022,-21.00422 2.51794,-21.09712 0.67039,-0.068 1.14666,5.81964 2.40437,7.31988 0.65224,0.778 3.09793,3.26046 3.27928,1.17822 0.69233,-7.94961 0.60591,-32.54467 1.55297,-32.56564 0.71413,-0.0158 1.40155,4.6584 1.9318,6.40133 0.93534,3.07447 2.92916,5.11411 3.63829,5.0198 0.69064,-0.0918 0.73486,-22.22644 1.49881,-22.32482 0.92397,-0.11899 0.33685,2.28295 1.67925,6.4428 1.04383,3.23463 4.43088,7.61081 4.67908,6.45024 0.48705,-2.27751 0.26752,-8.62713 0.86933,-8.62713 0.74441,0 0.91622,11.10557 2.65691,17.52352 0.4194,1.54635 3.1605,7.60765 3.65808,6.20142 0.70332,-1.98766 0.47977,-5.15779 0.81704,-5.75236 0.3317,-0.58475 1.04088,13.37926 3.74627,18.32633 1.17167,2.14249 2.37899,3.39838 3.51202,4.48595 0.99617,0.95622 3.07905,3.00469 4.44819,3.66892 0.70178,0.34046 4.54931,3.8274 4.71868,2.61203 0.50104,-3.59527 0.68185,-13.84732 0.82601,-15.8517 0.79569,-11.06365 0.72352,-11.52352 1.03707,-12.88438 0.14276,-0.6196 1.41526,8.11117 2.48917,10.5648 0.83986,1.91887 3.11737,5.30448 3.17468,3.29383 0.18196,-6.38332 0.29691,-7.23567 0.45091,-10.53417 0.31246,-6.69242 0.68157,-20.188 1.09124,-21.82192 0.65309,-2.60478 0.64877,19.71285 3.40554,29.96038 1.3485,5.01265 2.14,10.10022 5.57533,13.99171"
       id="path7420"
       inkscape:connector-curvature="0"
       sodipodi:nodetypes="cssssasssssssssssssssssssssssssssc" />
    <path
       sodipodi:type="arc"
       style="fill:#000000;fill-opacity:0.15686275;stroke:#000000;stroke-width:0.1;stroke-miterlimit:4;stroke-opacity:1;stroke-dasharray:none"
       id="path7422"
       sodipodi:cx="527.41071"
       sodipodi:cy="538.70148"
       sodipodi:rx="8.125"
       sodipodi:ry="8.125"
       d="m 535.53571,538.70148 c 0,4.48731 -3.63769,8.125 -8.125,8.125 -4.48732,0 -8.125,-3.63769 -8.125,-8.125 0,-4.48732 3.63768,-8.125 8.125,-8.125 4.48731,0 8.125,3.63768 8.125,8.125 z"
       transform="translate(80.535714,13.75)" />
    <path
       sodipodi:type="arc"
       style="fill:#000000;fill-opacity:0.15686275;stroke:#000000;stroke-width:0.1;stroke-miterlimit:4;stroke-opacity:1;stroke-dasharray:none"
       id="path7422-3"
       sodipodi:cx="527.41071"
       sodipodi:cy="538.70148"
       sodipodi:rx="8.125"
       sodipodi:ry="8.125"
       d="m 535.53571,538.70148 c 0,4.48731 -3.63769,8.125 -8.125,8.125 -4.48732,0 -8.125,-3.63769 -8.125,-8.125 0,-4.48732 3.63768,-8.125 8.125,-8.125 4.48731,0 8.125,3.63768 8.125,8.125 z"
       transform="translate(121.69644,4.7321328)" />
    <text
       xml:space="preserve"
       style="font-size:25px;font-style:normal;font-weight:normal;line-height:125%;letter-spacing:0px;word-spacing:0px;fill:#000000;fill-opacity:1;stroke:none;font-family:Times New Roman;-inkscape-font-specification:Times New Roman"
       x="-593.91565"
       y="607.82916"
       id="text7442"
       sodipodi:linespacing="125%"
       transform="matrix(0,-1,1,0,0,0)"><tspan
         sodipodi:role="line"
         id="tspan7444"
         x="-593.91565"
         y="607.82916"
         style="font-size:6px">Missed peak</tspan></text>
    <text
       xml:space="preserve"
       style="font-size:25px;font-style:normal;font-weight:normal;line-height:125%;letter-spacing:0px;word-spacing:0px;fill:#000000;fill-opacity:1;stroke:none;font-family:Times New Roman;-inkscape-font-specification:Times New Roman"
       x="-534.46417"
       y="654.29852"
       id="text7442-4"
       sodipodi:linespacing="125%"
       transform="matrix(0,-1,1,0,0,0)"><tspan
         sodipodi:role="line"
         id="tspan7444-9"
         x="-534.46417"
         y="654.29852"
         style="font-size:6px">Missed peak</tspan></text>
    <text
       xml:space="preserve"
       style="font-size:25px;font-style:normal;font-weight:normal;line-height:125%;letter-spacing:0px;word-spacing:0px;fill:#000000;fill-opacity:1;stroke:none;font-family:Times New Roman;-inkscape-font-specification:Times New Roman"
       x="647.54083"
       y="487.17859"
       id="text7442-2"
       sodipodi:linespacing="125%"><tspan
         sodipodi:role="line"
         id="tspan7444-2"
         x="647.54083"
         y="487.17859"
         style="font-size:6px">Identified signal</tspan></text>
    <text
       xml:space="preserve"
       style="font-size:25px;font-style:normal;font-weight:normal;line-height:125%;letter-spacing:0px;word-spacing:0px;fill:#000000;fill-opacity:1;stroke:none;font-family:Times New Roman;-inkscape-font-specification:Times New Roman"
       x="635.05786"
       y="606.47632"
       id="text7442-2-4"
       sodipodi:linespacing="125%"><tspan
         sodipodi:role="line"
         id="tspan7444-2-8"
         x="635.05786"
         y="606.47632"
         style="font-size:6px">AM signal</tspan></text>
    <path
       style="fill:none;stroke:#000000;stroke-width:0.1;stroke-linecap:butt;stroke-linejoin:miter;stroke-miterlimit:4;stroke-opacity:1;stroke-dasharray:none"
       d="m 687.14286,488.95146 c 5.89286,0 -41.96429,0 -41.96429,0 l -8.69643,10.69643"
       id="path7497"
       inkscape:connector-curvature="0"
       sodipodi:nodetypes="ccc" />
    <path
       style="fill:none;stroke:#000000;stroke-width:0.1;stroke-linecap:butt;stroke-linejoin:miter;stroke-miterlimit:4;stroke-opacity:1;stroke-dasharray:none"
       d="m 635.71429,608.25504 24.82143,0 10,-10"
       id="path7499"
       inkscape:connector-curvature="0" />
    <path
       style="fill:none;stroke:#000000;stroke-width:0.1;stroke-linecap:butt;stroke-linejoin:miter;stroke-miterlimit:4;stroke-opacity:1;stroke-dasharray:none"
       d="m 609.28572,593.61218 0,-33.15178"
       id="path7501"
       inkscape:connector-curvature="0"
       sodipodi:nodetypes="cc" />
    <path
       style="fill:none;stroke:#000000;stroke-width:0.1;stroke-linecap:butt;stroke-linejoin:miter;stroke-miterlimit:4;stroke-opacity:1;stroke-dasharray:none"
       d="m 655.875,504.48718 0,34.42883"
       id="path7503"
       inkscape:connector-curvature="0"
       sodipodi:nodetypes="cc" />
    <text
       xml:space="preserve"
       style="font-size:25px;font-style:normal;font-weight:normal;line-height:125%;letter-spacing:0px;word-spacing:0px;fill:#000000;fill-opacity:1;stroke:none;font-family:Times New Roman;-inkscape-font-specification:Times New Roman"
       x="604.29004"
       y="486.67273"
       id="text7442-2-1"
       sodipodi:linespacing="125%"><tspan
         sodipodi:role="line"
         id="tspan7444-2-80"
         x="604.29004"
         y="486.67273"
         style="font-size:6px">Exp. behaviour</tspan></text>
    <path
       style="fill:none;stroke:#000000;stroke-width:0.1;stroke-linecap:butt;stroke-linejoin:miter;stroke-miterlimit:4;stroke-opacity:1;stroke-dasharray:none"
       d="m 640.875,488.36218 -36.75,0 -12.875,12.875"
       id="path7526"
       inkscape:connector-curvature="0" />
  </g>
</svg>
