<?xml version="1.0" encoding="UTF-8" standalone="no"?>
<!-- Created with Inkscape (http://www.inkscape.org/) -->

<svg
   xmlns:dc="http://purl.org/dc/elements/1.1/"
   xmlns:cc="http://creativecommons.org/ns#"
   xmlns:rdf="http://www.w3.org/1999/02/22-rdf-syntax-ns#"
   xmlns:svg="http://www.w3.org/2000/svg"
   xmlns="http://www.w3.org/2000/svg"
   xmlns:sodipodi="http://sodipodi.sourceforge.net/DTD/sodipodi-0.dtd"
   xmlns:inkscape="http://www.inkscape.org/namespaces/inkscape"
   id="svg2"
   version="1.1"
   inkscape:version="0.48.5 r10040"
   width="455.62802"
   height="371.58572"
   xml:space="preserve"
   sodipodi:docname="sampling_result.svg"><metadata
     id="metadata8"><rdf:RDF><cc:Work
         rdf:about=""><dc:format>image/svg+xml</dc:format><dc:type
           rdf:resource="http://purl.org/dc/dcmitype/StillImage" /><dc:title></dc:title></cc:Work></rdf:RDF></metadata><defs
     id="defs6"><clipPath
       clipPathUnits="userSpaceOnUse"
       id="clipPath18"><path
         d="m 870,5775.01 0,-3150.01 4200.01,0 0,3150.01 -4200.01,0 z"
         id="path20"
         inkscape:connector-curvature="0" /></clipPath><clipPath
       clipPathUnits="userSpaceOnUse"
       id="clipPath238"><path
         d="m 1417.5,5535.01 0,-2572.51 3262.51,0 0,2572.51 -3262.51,0 z"
         id="path240"
         inkscape:connector-curvature="0" /></clipPath><clipPath
       clipPathUnits="userSpaceOnUse"
       id="clipPath272"><path
         d="m 870,5775.01 0,-3150.01 4200.01,0 0,3150.01 -4200.01,0 z"
         id="path274"
         inkscape:connector-curvature="0" /></clipPath></defs><sodipodi:namedview
     pagecolor="#ffffff"
     bordercolor="#666666"
     borderopacity="1"
     objecttolerance="10"
     gridtolerance="10"
     guidetolerance="10"
     inkscape:pageopacity="0"
     inkscape:pageshadow="2"
     inkscape:window-width="1920"
     inkscape:window-height="1028"
     id="namedview4"
     showgrid="false"
     fit-margin-top="0"
     fit-margin-left="0"
     fit-margin-right="0"
     fit-margin-bottom="0"
     inkscape:zoom="1.6930253"
     inkscape:cx="470.61737"
     inkscape:cy="112.94565"
     inkscape:window-x="-6"
     inkscape:window-y="-6"
     inkscape:window-maximized="1"
     inkscape:current-layer="g10" /><g
     id="g10"
     inkscape:groupmode="layer"
     inkscape:label="collect2"
     transform="matrix(1.25,0,0,-1.25,-135.27466,710.35159)"><g
       id="g12"
       transform="matrix(0.1,0,0,0.1,1.4175807,4.2527422)"><g
         id="g14"><g
           id="g16"
           clip-path="url(#clipPath18)"><path
             d="m 1417.5,2970 0,2565.01 3255.01,0 0,-2565.01 -3255.01,0"
             style="fill:none;stroke:#ffffff;stroke-width:5.00001001;stroke-linecap:butt;stroke-linejoin:round;stroke-miterlimit:10;stroke-opacity:1;stroke-dasharray:none"
             id="path22"
             inkscape:connector-curvature="0" /><path
             d="m 1417.5,5535.01 3255.01,0"
             style="fill:none;stroke:#000000;stroke-width:5.00001001;stroke-linecap:butt;stroke-linejoin:round;stroke-miterlimit:10;stroke-opacity:1;stroke-dasharray:none"
             id="path24"
             inkscape:connector-curvature="0" /><path
             d="m 1417.5,2970 3255.01,0"
             style="fill:none;stroke:#000000;stroke-width:5.00001001;stroke-linecap:butt;stroke-linejoin:round;stroke-miterlimit:10;stroke-opacity:1;stroke-dasharray:none"
             id="path26"
             inkscape:connector-curvature="0" /><path
             d="m 4672.51,2970 0,2565.01"
             style="fill:none;stroke:#000000;stroke-width:5.00001001;stroke-linecap:butt;stroke-linejoin:round;stroke-miterlimit:10;stroke-opacity:1;stroke-dasharray:none"
             id="path28"
             inkscape:connector-curvature="0" /><path
             d="m 1417.5,2970 0,2565.01"
             style="fill:none;stroke:#000000;stroke-width:5.00001001;stroke-linecap:butt;stroke-linejoin:round;stroke-miterlimit:10;stroke-opacity:1;stroke-dasharray:none"
             id="path30"
             inkscape:connector-curvature="0" /><path
             d="m 1417.5,2970 3255.01,0"
             style="fill:none;stroke:#000000;stroke-width:5.00001001;stroke-linecap:butt;stroke-linejoin:round;stroke-miterlimit:10;stroke-opacity:1;stroke-dasharray:none"
             id="path32"
             inkscape:connector-curvature="0" /><path
             d="m 1417.5,2970 0,2565.01"
             style="fill:none;stroke:#000000;stroke-width:5.00001001;stroke-linecap:butt;stroke-linejoin:round;stroke-miterlimit:10;stroke-opacity:1;stroke-dasharray:none"
             id="path34"
             inkscape:connector-curvature="0" /><path
             d="m 1417.5,2970 0,37.5"
             style="fill:none;stroke:#000000;stroke-width:5.00001001;stroke-linecap:butt;stroke-linejoin:round;stroke-miterlimit:10;stroke-opacity:1;stroke-dasharray:none"
             id="path36"
             inkscape:connector-curvature="0" /><path
             d="m 1417.5,5535.01 0,-30"
             style="fill:none;stroke:#000000;stroke-width:5.00001001;stroke-linecap:butt;stroke-linejoin:round;stroke-miterlimit:10;stroke-opacity:1;stroke-dasharray:none"
             id="path38"
             inkscape:connector-curvature="0" /><g
             id="g40"
             transform="scale(10,10)"><text
   transform="matrix(1,0,0,-1,139.5,285)"
   id="text42"><tspan
     style="font-size:10px;font-variant:normal;font-weight:normal;writing-mode:lr-tb;fill:#000000;fill-opacity:1;fill-rule:nonzero;stroke:none;font-family:Helvetica;-inkscape-font-specification:Helvetica"
     x="0"
     y="0"
     id="tspan44">0</tspan></text>

</g><path
             d="m 1882.5,2970 0,37.5"
             style="fill:none;stroke:#000000;stroke-width:5.00001001;stroke-linecap:butt;stroke-linejoin:round;stroke-miterlimit:10;stroke-opacity:1;stroke-dasharray:none"
             id="path46"
             inkscape:connector-curvature="0" /><path
             d="m 1882.5,5535.01 0,-30"
             style="fill:none;stroke:#000000;stroke-width:5.00001001;stroke-linecap:butt;stroke-linejoin:round;stroke-miterlimit:10;stroke-opacity:1;stroke-dasharray:none"
             id="path48"
             inkscape:connector-curvature="0" /><g
             id="g50"
             transform="scale(10,10)"><text
   transform="matrix(1,0,0,-1,186,285)"
   id="text52"><tspan
     style="font-size:10px;font-variant:normal;font-weight:normal;writing-mode:lr-tb;fill:#000000;fill-opacity:1;fill-rule:nonzero;stroke:none;font-family:Helvetica;-inkscape-font-specification:Helvetica"
     x="0"
     y="0"
     id="tspan54">5</tspan></text>

</g><path
             d="m 2347.5,2970 0,37.5"
             style="fill:none;stroke:#000000;stroke-width:5.00001001;stroke-linecap:butt;stroke-linejoin:round;stroke-miterlimit:10;stroke-opacity:1;stroke-dasharray:none"
             id="path56"
             inkscape:connector-curvature="0" /><path
             d="m 2347.5,5535.01 0,-30"
             style="fill:none;stroke:#000000;stroke-width:5.00001001;stroke-linecap:butt;stroke-linejoin:round;stroke-miterlimit:10;stroke-opacity:1;stroke-dasharray:none"
             id="path58"
             inkscape:connector-curvature="0" /><g
             id="g60"
             transform="scale(10,10)"><text
   transform="matrix(1,0,0,-1,229.5,285)"
   id="text62"><tspan
     style="font-size:10px;font-variant:normal;font-weight:normal;writing-mode:lr-tb;fill:#000000;fill-opacity:1;fill-rule:nonzero;stroke:none;font-family:Helvetica;-inkscape-font-specification:Helvetica"
     x="0 5.5599999"
     y="0"
     sodipodi:role="line"
     id="tspan64">10</tspan></text>

</g><path
             d="m 2812.5,2970 0,37.5"
             style="fill:none;stroke:#000000;stroke-width:5.00001001;stroke-linecap:butt;stroke-linejoin:round;stroke-miterlimit:10;stroke-opacity:1;stroke-dasharray:none"
             id="path66"
             inkscape:connector-curvature="0" /><path
             d="m 2812.5,5535.01 0,-30"
             style="fill:none;stroke:#000000;stroke-width:5.00001001;stroke-linecap:butt;stroke-linejoin:round;stroke-miterlimit:10;stroke-opacity:1;stroke-dasharray:none"
             id="path68"
             inkscape:connector-curvature="0" /><g
             id="g70"
             transform="scale(10,10)"><text
   transform="matrix(1,0,0,-1,276,285)"
   id="text72"><tspan
     style="font-size:10px;font-variant:normal;font-weight:normal;writing-mode:lr-tb;fill:#000000;fill-opacity:1;fill-rule:nonzero;stroke:none;font-family:Helvetica;-inkscape-font-specification:Helvetica"
     x="0 5.5599999"
     y="0"
     sodipodi:role="line"
     id="tspan74">15</tspan></text>

</g><path
             d="m 3277.51,2970 0,37.5"
             style="fill:none;stroke:#000000;stroke-width:5.00001001;stroke-linecap:butt;stroke-linejoin:round;stroke-miterlimit:10;stroke-opacity:1;stroke-dasharray:none"
             id="path76"
             inkscape:connector-curvature="0" /><path
             d="m 3277.51,5535.01 0,-30"
             style="fill:none;stroke:#000000;stroke-width:5.00001001;stroke-linecap:butt;stroke-linejoin:round;stroke-miterlimit:10;stroke-opacity:1;stroke-dasharray:none"
             id="path78"
             inkscape:connector-curvature="0" /><g
             id="g80"
             transform="scale(10,10)"><text
   transform="matrix(1,0,0,-1,322.5,285)"
   id="text82"><tspan
     style="font-size:10px;font-variant:normal;font-weight:normal;writing-mode:lr-tb;fill:#000000;fill-opacity:1;fill-rule:nonzero;stroke:none;font-family:Helvetica;-inkscape-font-specification:Helvetica"
     x="0 5.5599999"
     y="0"
     sodipodi:role="line"
     id="tspan84">20</tspan></text>

</g><path
             d="m 3742.51,2970 0,37.5"
             style="fill:none;stroke:#000000;stroke-width:5.00001001;stroke-linecap:butt;stroke-linejoin:round;stroke-miterlimit:10;stroke-opacity:1;stroke-dasharray:none"
             id="path86"
             inkscape:connector-curvature="0" /><path
             d="m 3742.51,5535.01 0,-30"
             style="fill:none;stroke:#000000;stroke-width:5.00001001;stroke-linecap:butt;stroke-linejoin:round;stroke-miterlimit:10;stroke-opacity:1;stroke-dasharray:none"
             id="path88"
             inkscape:connector-curvature="0" /><g
             id="g90"
             transform="scale(10,10)"><text
   transform="matrix(1,0,0,-1,369.001,285)"
   id="text92"><tspan
     style="font-size:10px;font-variant:normal;font-weight:normal;writing-mode:lr-tb;fill:#000000;fill-opacity:1;fill-rule:nonzero;stroke:none;font-family:Helvetica;-inkscape-font-specification:Helvetica"
     x="0 5.5599999"
     y="0"
     sodipodi:role="line"
     id="tspan94">25</tspan></text>

</g><path
             d="m 4207.51,2970 0,37.5"
             style="fill:none;stroke:#000000;stroke-width:5.00001001;stroke-linecap:butt;stroke-linejoin:round;stroke-miterlimit:10;stroke-opacity:1;stroke-dasharray:none"
             id="path96"
             inkscape:connector-curvature="0" /><path
             d="m 4207.51,5535.01 0,-30"
             style="fill:none;stroke:#000000;stroke-width:5.00001001;stroke-linecap:butt;stroke-linejoin:round;stroke-miterlimit:10;stroke-opacity:1;stroke-dasharray:none"
             id="path98"
             inkscape:connector-curvature="0" /><g
             id="g100"
             transform="scale(10,10)"><text
   transform="matrix(1,0,0,-1,415.501,285)"
   id="text102"><tspan
     style="font-size:10px;font-variant:normal;font-weight:normal;writing-mode:lr-tb;fill:#000000;fill-opacity:1;fill-rule:nonzero;stroke:none;font-family:Helvetica;-inkscape-font-specification:Helvetica"
     x="0 5.5599999"
     y="0"
     sodipodi:role="line"
     id="tspan104">30</tspan></text>

</g><path
             d="m 4672.51,2970 0,37.5"
             style="fill:none;stroke:#000000;stroke-width:5.00001001;stroke-linecap:butt;stroke-linejoin:round;stroke-miterlimit:10;stroke-opacity:1;stroke-dasharray:none"
             id="path106"
             inkscape:connector-curvature="0" /><path
             d="m 4672.51,5535.01 0,-30"
             style="fill:none;stroke:#000000;stroke-width:5.00001001;stroke-linecap:butt;stroke-linejoin:round;stroke-miterlimit:10;stroke-opacity:1;stroke-dasharray:none"
             id="path108"
             inkscape:connector-curvature="0" /><g
             id="g110"
             transform="scale(10,10)"><text
   transform="matrix(1,0,0,-1,462.001,285)"
   id="text112"><tspan
     style="font-size:10px;font-variant:normal;font-weight:normal;writing-mode:lr-tb;fill:#000000;fill-opacity:1;fill-rule:nonzero;stroke:none;font-family:Helvetica;-inkscape-font-specification:Helvetica"
     x="0 5.5599999"
     y="0"
     sodipodi:role="line"
     id="tspan114">35</tspan></text>

</g><path
             d="m 1417.5,2970 30,0"
             style="fill:none;stroke:#000000;stroke-width:5.00001001;stroke-linecap:butt;stroke-linejoin:round;stroke-miterlimit:10;stroke-opacity:1;stroke-dasharray:none"
             id="path116"
             inkscape:connector-curvature="0" /><path
             d="m 4672.51,2970 -37.5,0"
             style="fill:none;stroke:#000000;stroke-width:5.00001001;stroke-linecap:butt;stroke-linejoin:round;stroke-miterlimit:10;stroke-opacity:1;stroke-dasharray:none"
             id="path118"
             inkscape:connector-curvature="0" /><g
             id="g120"
             transform="scale(10,10)"><text
   transform="matrix(1,0,0,-1,133.5,293.25)"
   id="text122"><tspan
     style="font-size:10px;font-variant:normal;font-weight:normal;writing-mode:lr-tb;fill:#000000;fill-opacity:1;fill-rule:nonzero;stroke:none;font-family:Helvetica;-inkscape-font-specification:Helvetica"
     x="0"
     y="0"
     id="tspan124">0</tspan></text>

</g><path
             d="m 1417.5,3232.5 30,0"
             style="fill:none;stroke:#000000;stroke-width:5.00001001;stroke-linecap:butt;stroke-linejoin:round;stroke-miterlimit:10;stroke-opacity:1;stroke-dasharray:none"
             id="path126"
             inkscape:connector-curvature="0" /><path
             d="m 4672.51,3232.5 -37.5,0"
             style="fill:none;stroke:#000000;stroke-width:5.00001001;stroke-linecap:butt;stroke-linejoin:round;stroke-miterlimit:10;stroke-opacity:1;stroke-dasharray:none"
             id="path128"
             inkscape:connector-curvature="0" /><g
             id="g130"
             transform="scale(10,10)"><text
   transform="matrix(1,0,0,-1,128.25,319.5)"
   id="text132"><tspan
     style="font-size:10px;font-variant:normal;font-weight:normal;writing-mode:lr-tb;fill:#000000;fill-opacity:1;fill-rule:nonzero;stroke:none;font-family:Helvetica;-inkscape-font-specification:Helvetica"
     x="0 5.5599999"
     y="0"
     sodipodi:role="line"
     id="tspan134">20</tspan></text>

</g><path
             d="m 1417.5,3487.51 30,0"
             style="fill:none;stroke:#000000;stroke-width:5.00001001;stroke-linecap:butt;stroke-linejoin:round;stroke-miterlimit:10;stroke-opacity:1;stroke-dasharray:none"
             id="path136"
             inkscape:connector-curvature="0" /><path
             d="m 4672.51,3487.51 -37.5,0"
             style="fill:none;stroke:#000000;stroke-width:5.00001001;stroke-linecap:butt;stroke-linejoin:round;stroke-miterlimit:10;stroke-opacity:1;stroke-dasharray:none"
             id="path138"
             inkscape:connector-curvature="0" /><g
             id="g140"
             transform="scale(10,10)"><text
   transform="matrix(1,0,0,-1,128.25,345.001)"
   id="text142"><tspan
     style="font-size:10px;font-variant:normal;font-weight:normal;writing-mode:lr-tb;fill:#000000;fill-opacity:1;fill-rule:nonzero;stroke:none;font-family:Helvetica;-inkscape-font-specification:Helvetica"
     x="0 5.5599999"
     y="0"
     sodipodi:role="line"
     id="tspan144">40</tspan></text>

</g><path
             d="m 1417.5,3742.51 30,0"
             style="fill:none;stroke:#000000;stroke-width:5.00001001;stroke-linecap:butt;stroke-linejoin:round;stroke-miterlimit:10;stroke-opacity:1;stroke-dasharray:none"
             id="path146"
             inkscape:connector-curvature="0" /><path
             d="m 4672.51,3742.51 -37.5,0"
             style="fill:none;stroke:#000000;stroke-width:5.00001001;stroke-linecap:butt;stroke-linejoin:round;stroke-miterlimit:10;stroke-opacity:1;stroke-dasharray:none"
             id="path148"
             inkscape:connector-curvature="0" /><g
             id="g150"
             transform="scale(10,10)"><text
   transform="matrix(1,0,0,-1,128.25,370.501)"
   id="text152"><tspan
     style="font-size:10px;font-variant:normal;font-weight:normal;writing-mode:lr-tb;fill:#000000;fill-opacity:1;fill-rule:nonzero;stroke:none;font-family:Helvetica;-inkscape-font-specification:Helvetica"
     x="0 5.5599999"
     y="0"
     sodipodi:role="line"
     id="tspan154">60</tspan></text>

</g><path
             d="m 1417.5,3997.51 30,0"
             style="fill:none;stroke:#000000;stroke-width:5.00001001;stroke-linecap:butt;stroke-linejoin:round;stroke-miterlimit:10;stroke-opacity:1;stroke-dasharray:none"
             id="path156"
             inkscape:connector-curvature="0" /><path
             d="m 4672.51,3997.51 -37.5,0"
             style="fill:none;stroke:#000000;stroke-width:5.00001001;stroke-linecap:butt;stroke-linejoin:round;stroke-miterlimit:10;stroke-opacity:1;stroke-dasharray:none"
             id="path158"
             inkscape:connector-curvature="0" /><g
             id="g160"
             transform="scale(10,10)"><text
   transform="matrix(1,0,0,-1,128.25,396.001)"
   id="text162"><tspan
     style="font-size:10px;font-variant:normal;font-weight:normal;writing-mode:lr-tb;fill:#000000;fill-opacity:1;fill-rule:nonzero;stroke:none;font-family:Helvetica;-inkscape-font-specification:Helvetica"
     x="0 5.5599999"
     y="0"
     sodipodi:role="line"
     id="tspan164">80</tspan></text>

</g><path
             d="m 1417.5,4252.51 30,0"
             style="fill:none;stroke:#000000;stroke-width:5.00001001;stroke-linecap:butt;stroke-linejoin:round;stroke-miterlimit:10;stroke-opacity:1;stroke-dasharray:none"
             id="path166"
             inkscape:connector-curvature="0" /><path
             d="m 4672.51,4252.51 -37.5,0"
             style="fill:none;stroke:#000000;stroke-width:5.00001001;stroke-linecap:butt;stroke-linejoin:round;stroke-miterlimit:10;stroke-opacity:1;stroke-dasharray:none"
             id="path168"
             inkscape:connector-curvature="0" /><g
             id="g170"
             transform="scale(10,10)"><text
   transform="matrix(1,0,0,-1,123,421.501)"
   id="text172"><tspan
     style="font-size:10px;font-variant:normal;font-weight:normal;writing-mode:lr-tb;fill:#000000;fill-opacity:1;fill-rule:nonzero;stroke:none;font-family:Helvetica;-inkscape-font-specification:Helvetica"
     x="0 5.5599999 11.12"
     y="0"
     sodipodi:role="line"
     id="tspan174">100</tspan></text>

</g><path
             d="m 1417.5,4515.01 30,0"
             style="fill:none;stroke:#000000;stroke-width:5.00001001;stroke-linecap:butt;stroke-linejoin:round;stroke-miterlimit:10;stroke-opacity:1;stroke-dasharray:none"
             id="path176"
             inkscape:connector-curvature="0" /><path
             d="m 4672.51,4515.01 -37.5,0"
             style="fill:none;stroke:#000000;stroke-width:5.00001001;stroke-linecap:butt;stroke-linejoin:round;stroke-miterlimit:10;stroke-opacity:1;stroke-dasharray:none"
             id="path178"
             inkscape:connector-curvature="0" /><g
             id="g180"
             transform="scale(10,10)"><text
   transform="matrix(1,0,0,-1,123,447.751)"
   id="text182"><tspan
     style="font-size:10px;font-variant:normal;font-weight:normal;writing-mode:lr-tb;fill:#000000;fill-opacity:1;fill-rule:nonzero;stroke:none;font-family:Helvetica;-inkscape-font-specification:Helvetica"
     x="0 5.5599999 11.12"
     y="0"
     sodipodi:role="line"
     id="tspan184">120</tspan></text>

</g><path
             d="m 1417.5,4770.01 30,0"
             style="fill:none;stroke:#000000;stroke-width:5.00001001;stroke-linecap:butt;stroke-linejoin:round;stroke-miterlimit:10;stroke-opacity:1;stroke-dasharray:none"
             id="path186"
             inkscape:connector-curvature="0" /><path
             d="m 4672.51,4770.01 -37.5,0"
             style="fill:none;stroke:#000000;stroke-width:5.00001001;stroke-linecap:butt;stroke-linejoin:round;stroke-miterlimit:10;stroke-opacity:1;stroke-dasharray:none"
             id="path188"
             inkscape:connector-curvature="0" /><g
             id="g190"
             transform="scale(10,10)"><text
   transform="matrix(1,0,0,-1,123,473.251)"
   id="text192"><tspan
     style="font-size:10px;font-variant:normal;font-weight:normal;writing-mode:lr-tb;fill:#000000;fill-opacity:1;fill-rule:nonzero;stroke:none;font-family:Helvetica;-inkscape-font-specification:Helvetica"
     x="0 5.5599999 11.12"
     y="0"
     sodipodi:role="line"
     id="tspan194">140</tspan></text>

</g><path
             d="m 1417.5,5025.01 30,0"
             style="fill:none;stroke:#000000;stroke-width:5.00001001;stroke-linecap:butt;stroke-linejoin:round;stroke-miterlimit:10;stroke-opacity:1;stroke-dasharray:none"
             id="path196"
             inkscape:connector-curvature="0" /><path
             d="m 4672.51,5025.01 -37.5,0"
             style="fill:none;stroke:#000000;stroke-width:5.00001001;stroke-linecap:butt;stroke-linejoin:round;stroke-miterlimit:10;stroke-opacity:1;stroke-dasharray:none"
             id="path198"
             inkscape:connector-curvature="0" /><g
             id="g200"
             transform="scale(10,10)"><text
   transform="matrix(1,0,0,-1,123,498.751)"
   id="text202"><tspan
     style="font-size:10px;font-variant:normal;font-weight:normal;writing-mode:lr-tb;fill:#000000;fill-opacity:1;fill-rule:nonzero;stroke:none;font-family:Helvetica;-inkscape-font-specification:Helvetica"
     x="0 5.5599999 11.12"
     y="0"
     sodipodi:role="line"
     id="tspan204">160</tspan></text>

</g><path
             d="m 1417.5,5280.01 30,0"
             style="fill:none;stroke:#000000;stroke-width:5.00001001;stroke-linecap:butt;stroke-linejoin:round;stroke-miterlimit:10;stroke-opacity:1;stroke-dasharray:none"
             id="path206"
             inkscape:connector-curvature="0" /><path
             d="m 4672.51,5280.01 -37.5,0"
             style="fill:none;stroke:#000000;stroke-width:5.00001001;stroke-linecap:butt;stroke-linejoin:round;stroke-miterlimit:10;stroke-opacity:1;stroke-dasharray:none"
             id="path208"
             inkscape:connector-curvature="0" /><g
             id="g210"
             transform="scale(10,10)"><text
   transform="matrix(1,0,0,-1,123,524.251)"
   id="text212"><tspan
     style="font-size:10px;font-variant:normal;font-weight:normal;writing-mode:lr-tb;fill:#000000;fill-opacity:1;fill-rule:nonzero;stroke:none;font-family:Helvetica;-inkscape-font-specification:Helvetica"
     x="0 5.5599999 11.12"
     y="0"
     sodipodi:role="line"
     id="tspan214">180</tspan></text>

</g><path
             d="m 1417.5,5535.01 30,0"
             style="fill:none;stroke:#000000;stroke-width:5.00001001;stroke-linecap:butt;stroke-linejoin:round;stroke-miterlimit:10;stroke-opacity:1;stroke-dasharray:none"
             id="path216"
             inkscape:connector-curvature="0" /><path
             d="m 4672.51,5535.01 -37.5,0"
             style="fill:none;stroke:#000000;stroke-width:5.00001001;stroke-linecap:butt;stroke-linejoin:round;stroke-miterlimit:10;stroke-opacity:1;stroke-dasharray:none"
             id="path218"
             inkscape:connector-curvature="0" /><g
             id="g220"
             transform="scale(10,10)"><text
   transform="matrix(1,0,0,-1,123,549.751)"
   id="text222"><tspan
     style="font-size:10px;font-variant:normal;font-weight:normal;writing-mode:lr-tb;fill:#000000;fill-opacity:1;fill-rule:nonzero;stroke:none;font-family:Helvetica;-inkscape-font-specification:Helvetica"
     x="0 5.5599999 11.12"
     y="0"
     sodipodi:role="line"
     id="tspan224">200</tspan></text>

</g><path
             d="m 1417.5,5535.01 3255.01,0"
             style="fill:none;stroke:#000000;stroke-width:5.00001001;stroke-linecap:butt;stroke-linejoin:round;stroke-miterlimit:10;stroke-opacity:1;stroke-dasharray:none"
             id="path226"
             inkscape:connector-curvature="0" /><path
             d="m 1417.5,2970 3255.01,0"
             style="fill:none;stroke:#000000;stroke-width:5.00001001;stroke-linecap:butt;stroke-linejoin:round;stroke-miterlimit:10;stroke-opacity:1;stroke-dasharray:none"
             id="path228"
             inkscape:connector-curvature="0" /><path
             d="m 4672.51,2970 0,2565.01"
             style="fill:none;stroke:#000000;stroke-width:5.00001001;stroke-linecap:butt;stroke-linejoin:round;stroke-miterlimit:10;stroke-opacity:1;stroke-dasharray:none"
             id="path230"
             inkscape:connector-curvature="0" /><path
             d="m 1417.5,2970 0,2565.01"
             style="fill:none;stroke:#000000;stroke-width:5.00001001;stroke-linecap:butt;stroke-linejoin:round;stroke-miterlimit:10;stroke-opacity:1;stroke-dasharray:none"
             id="path232"
             inkscape:connector-curvature="0" /></g></g><g
         id="g234"><g
           id="g236"
           clip-path="url(#clipPath238)"><path
             d="m 4057.51,5257.51 7.5,0 0,15 7.5,7.5 0,-7.5 7.5,-15 0,22.5 7.5,-22.5 0,-67.5 0,90 0,-22.5 7.5,22.5 0,-127.5 7.5,-15 0,-7.5 0,22.5 7.5,-15 0,-7.5 0,37.5 0,-30 7.5,0 0,-7.5 0,150 7.5,-165 0,52.5 0,-15 7.5,-52.5 0,67.5 0,-30 7.5,-7.5 0,22.5 7.5,-15 0,30 0,-37.5 7.5,22.5 0,127.5 7.5,-7.5 0,-30 0,52.5 7.5,-22.5 0,-15 0,22.5 7.5,-60 0,60 7.5,-37.5 0,52.5 0,-15 7.5,-22.5 0,-52.5 0,90 0,-52.5 7.5,30 0,-15 0,22.5 7.5,-7.5 0,-15 0,22.5 0,-7.5 7.5,-15 0,-30 0,67.5 0,-22.5 7.5,7.5 0,-22.5 0,15 7.5,-15 0,-30 0,52.5 0,-7.5 7.5,90 0,-105 0,15 7.5,0 0,-135 0,142.5 0,-127.5 7.5,-15 0,-7.5 0,22.5 7.5,-15 0,-37.5 0,52.5 7.5,-15 0,-7.5 0,22.5 7.5,0 0,-22.5 0,22.5 7.5,-15 0,30 0,-30 7.5,30 0,-37.5 0,90 0,-82.5 7.5,15 0,-52.5 0,15 7.5,165 0,-37.5"
             style="fill:none;stroke:#0000ff;stroke-width:5.00001001;stroke-linecap:butt;stroke-linejoin:round;stroke-miterlimit:10;stroke-opacity:1;stroke-dasharray:none"
             id="path242"
             inkscape:connector-curvature="0" /><path
             d="m 3832.51,5137.51 0,-22.5 0,37.5 0,-22.5 7.5,7.5 0,15 0,-37.5 7.5,15 0,-15 0,112.5 0,-90 7.5,-7.5 0,150 0,-7.5 7.5,22.5 0,-52.5 0,30 7.5,-15 0,-15 0,52.5 0,-37.5 7.5,15 0,-15 0,52.5 0,-37.5 7.5,22.5 0,-37.5 7.5,22.5 0,-22.5 7.5,0 0,-30 0,67.5 0,-22.5 7.5,7.5 0,15 0,-52.5 7.5,37.5 0,-37.5 0,37.5 7.5,-7.5 0,-15 0,22.5 0,-7.5 7.5,-15 0,-30 0,52.5 7.5,-22.5 0,-15 0,37.5 0,-22.5 7.5,22.5 0,-165 7.5,22.5 0,-7.5 0,22.5 0,-15 7.5,-7.5 0,-15 0,52.5 0,-30 7.5,0 0,15 0,-22.5 7.5,0 0,-15 0,52.5 7.5,-30 0,-22.5 0,15 7.5,7.5 0,15 0,-37.5 7.5,15 0,142.5 7.5,7.5 0,-22.5 0,37.5 0,-15 7.5,15 0,-52.5 0,52.5 7.5,-15 0,-37.5 0,52.5 0,-22.5 7.5,0 0,-45 0,67.5 7.5,0 0,-37.5 7.5,15 0,7.5 0,-22.5 7.5,0 0,37.5 0,-22.5 7.5,-30 0,37.5 0,-22.5"
             style="fill:none;stroke:#0000ff;stroke-width:5.00001001;stroke-linecap:butt;stroke-linejoin:round;stroke-miterlimit:10;stroke-opacity:1;stroke-dasharray:none"
             id="path244"
             inkscape:connector-curvature="0" /><path
             d="m 3600.01,5280.01 0,-37.5 0,37.5 7.5,-7.5 0,-15 0,22.5 7.5,-22.5 0,22.5 0,-37.5 7.5,30 0,-15 0,22.5 0,-7.5 7.5,0 0,-15 0,37.5 0,-22.5 7.5,7.5 0,-22.5 0,22.5 7.5,-7.5 0,-30 0,52.5 0,-15 7.5,0 0,-165 0,15 7.5,7.5 0,-22.5 0,37.5 0,-15 7.5,-7.5 0,7.5 0,-7.5 7.5,7.5 0,-7.5 0,22.5 7.5,-15 0,-7.5 0,52.5 7.5,-30 0,-37.5 0,15 7.5,7.5 0,-22.5 0,22.5 7.5,15 0,-22.5 0,150 7.5,-22.5 0,-37.5 0,52.5 7.5,7.5 0,-37.5 7.5,67.5 0,-67.5 0,37.5 7.5,-7.5 0,7.5 0,-22.5 7.5,22.5 0,-22.5 0,15 7.5,-30 0,-15 0,67.5 0,-22.5 7.5,0 0,-30 0,52.5 0,-15 7.5,-37.5 0,52.5 0,-52.5 7.5,-15 0,52.5 0,-7.5 7.5,-30 0,-75 0,127.5 0,-37.5 7.5,15 0,22.5 0,-37.5 7.5,15 0,22.5 0,-165 7.5,7.5 0,-22.5 0,67.5 0,-30 7.5,-15 0,30 0,-30 7.5,-7.5 0,60 7.5,-60 0,37.5 0,-30 7.5,0"
             style="fill:none;stroke:#0000ff;stroke-width:5.00001001;stroke-linecap:butt;stroke-linejoin:round;stroke-miterlimit:10;stroke-opacity:1;stroke-dasharray:none"
             id="path246"
             inkscape:connector-curvature="0" /><path
             d="m 3367.51,5100.01 0,30 0,-30 7.5,15 0,-37.5 0,52.5 0,-30 7.5,0 0,-22.5 0,15 7.5,-30 0,52.5 0,-15 7.5,-7.5 0,7.5 0,-22.5 7.5,0 0,-15 0,30 7.5,7.5 0,-37.5 0,15 7.5,0 0,217.5 0,-52.5 7.5,15 0,22.5 0,-7.5 7.5,-15 0,-15 0,37.5 0,-7.5 7.5,7.5 0,-52.5 0,45 7.5,-30 0,52.5 7.5,-15 0,-52.5 0,52.5 7.5,-22.5 0,-30 0,67.5 0,-15 7.5,-22.5 0,-15 0,37.5 7.5,-22.5 0,-15 0,37.5 7.5,-7.5 0,-30 0,52.5 7.5,-22.5 0,-30 7.5,37.5 0,-22.5 0,60 0,-45 7.5,-157.5 0,-15 0,30 7.5,0 0,-30 0,30 7.5,-30 0,37.5 0,-7.5 7.5,7.5 0,-37.5 0,15 7.5,15 0,-37.5 0,37.5 7.5,7.5 0,-22.5 0,15 7.5,-15 0,-75 0,97.5 0,-37.5 7.5,0 0,-45 0,240 0,-37.5 7.5,15 0,-30 0,52.5 0,-15 7.5,-7.5 0,7.5 0,-22.5 7.5,37.5 0,-90 0,75 7.5,-7.5 0,-30 0,52.5 0,-15 7.5,0"
             style="fill:none;stroke:#0000ff;stroke-width:5.00001001;stroke-linecap:butt;stroke-linejoin:round;stroke-miterlimit:10;stroke-opacity:1;stroke-dasharray:none"
             id="path248"
             inkscape:connector-curvature="0" /><path
             d="m 3150,5242.51 7.5,0 0,-15 0,67.5 0,-22.5 7.5,22.5 0,-67.5 0,105 0,-75 7.5,15 0,-30 0,37.5 0,-22.5 7.5,22.5 0,-22.5 0,60 0,-45 7.5,0 0,-15 0,52.5 0,-37.5 7.5,-30 0,-15 0,52.5 0,-37.5 7.5,30 0,7.5 0,-22.5 7.5,52.5 0,-345 7.5,-105 0,52.5 7.5,-15 0,-75 0,90 0,-30 7.5,15 0,-15 0,37.5 7.51,-45 0,45 0,-37.5 7.5,15 0,-37.5 0,52.5 0,-15 7.5,-22.5 0,45 0,-22.5 7.5,-15 0,37.5 0,-127.5 7.5,0 0,-90 0,577.5 0,-7.5 7.5,7.5 0,-60 0,75 0,-22.5 7.5,7.5 0,-22.5 0,37.5 0,-15 7.5,0 0,-37.5 0,67.5 0,-52.5 7.5,-15 0,52.5 0,-37.5 7.5,15 0,-15 0,37.5 7.5,-22.5 0,-15 0,37.5 0,-22.5 7.5,7.5 0,-90 0,82.5 7.5,-15 0,-52.5 0,90 0,-15 7.5,-22.5 0,37.5 0,-67.5 7.5,52.5 0,-37.5 0,67.5 0,-37.5 7.5,7.5 0,-37.5 0,67.5 7.5,-67.5 0,-150 0,360 0,-322.5 7.5,-30"
             style="fill:none;stroke:#0000ff;stroke-width:5.00001001;stroke-linecap:butt;stroke-linejoin:round;stroke-miterlimit:10;stroke-opacity:1;stroke-dasharray:none"
             id="path250"
             inkscape:connector-curvature="0" /><path
             d="m 2917.5,5280.01 0,-397.5 7.5,-7.5 0,-15 0,52.5 7.5,-37.5 0,45 0,-7.5 7.5,-15 0,-52.5 0,67.5 0,-15 7.5,15 0,-37.5 0,37.5 7.5,-15 0,22.5 0,-135 7.5,97.5 0,-7.5 0,45 0,-37.5 7.5,0 0,-22.5 0,435 7.5,-22.5 0,-30 0,52.5 0,-22.5 7.5,7.5 0,-22.5 0,52.5 0,-30 7.5,-7.5 0,7.5 0,-7.5 7.5,7.5 0,-37.5 0,37.5 7.5,0 0,15 0,-52.5 7.5,37.5 0,-37.5 0,52.5 0,-15 7.5,-7.5 0,-30 0,37.5 7.5,-37.5 0,52.5 0,-37.5 7.5,37.5 0,-37.5 7.5,37.5 0,-67.5 0,30 7.5,0 0,-15 0,37.5 0,-7.5 7.5,7.5 0,-52.5 0,67.5 0,-22.5 7.5,-337.5 0,-60 0,37.5 7.5,-30 0,30 7.5,-15 0,37.5 0,-52.5 7.5,0 0,-22.5 0,52.5 7.5,-15 0,22.5 0,-45 7.5,37.5 0,-52.5 0,37.5 7.5,0 0,-37.5 0,60 7.5,-22.5 0,-37.5 0,420 7.5,-7.5 0,-30 0,37.5 7.5,-7.5 0,7.5 0,-22.5 7.5,15 0,7.5 0,-22.5 7.5,15 0,22.5 0,-52.5"
             style="fill:none;stroke:#0000ff;stroke-width:5.00001001;stroke-linecap:butt;stroke-linejoin:round;stroke-miterlimit:10;stroke-opacity:1;stroke-dasharray:none"
             id="path252"
             inkscape:connector-curvature="0" /><path
             d="m 2692.5,5317.51 0,-60 7.5,0 0,22.5 0,-7.5 7.5,22.5 0,-52.5 7.5,37.5 0,-112.5 0,90 7.5,22.5 0,-22.5 0,15 7.5,0 0,-15 0,22.5 0,-7.5 7.5,-15 0,-15 0,37.5 0,-7.5 7.5,0 0,-30 0,52.5 0,-22.5 7.5,-30 0,37.5 0,-7.5 7.5,0 0,-15 0,37.5 0,-22.5 7.5,7.5 0,-397.5 7.5,-7.5 0,-30 0,75 0,-45 7.5,45 0,-37.5 0,30 7.5,-15 0,-22.5 0,37.5 0,-30 7.5,0 0,30 0,-52.5 7.5,60 0,-37.5 0,30 7.5,-30 0,-22.5 0,52.5 7.5,-15 0,-22.5 0,45 0,-22.5 7.5,375 0,7.5 0,-90 7.5,82.5 0,7.5 0,-37.5 7.5,37.5 0,-37.5 0,52.5 7.5,-22.5 0,-15 0,37.5 0,-22.5 7.5,-15 0,-15 0,52.5 0,-15 7.5,-22.5 0,-15 0,52.5 0,-15 7.5,-7.5 0,7.5 0,-22.5 7.5,15 0,-82.5 0,105 0,-15 7.5,-22.5 0,195 0,-195 7.5,22.5 0,-37.5 0,30 7.5,-30 0,37.5 0,-37.5 7.5,52.5 0,-37.5 0,15 7.5,-15 0,22.5"
             style="fill:none;stroke:#0000ff;stroke-width:5.00001001;stroke-linecap:butt;stroke-linejoin:round;stroke-miterlimit:10;stroke-opacity:1;stroke-dasharray:none"
             id="path254"
             inkscape:connector-curvature="0" /><path
             d="m 2467.5,5257.51 0,22.5 0,-382.5 7.5,15 0,-37.5 0,45 0,-37.5 7.5,30 0,-37.5 0,37.5 7.5,-30 0,30 7.5,-30 0,37.5 0,-7.5 7.5,-15 0,-15 0,30 0,-15 7.5,0 0,-15 0,30 0,-15 7.5,-75 0,97.5 7.5,-7.5 0,-37.5 0,405 7.5,-7.5 0,7.5 0,-22.5 7.5,22.5 0,-37.5 0,15 7.5,0 0,-15 0,75 0,-37.5 7.5,0 0,-52.5 0,45 7.5,22.5 0,-52.5 0,15 7.5,22.5 0,-52.5 0,52.5 7.5,-52.5 0,-127.5 0,210 0,-15 7.5,-37.5 0,-90 0,112.5 0,-7.5 7.5,-15 0,-30 0,67.5 0,-22.5 7.5,-15 0,22.5 0,-22.5 7.5,15 0,-30 0,37.5 7.5,-22.5 0,22.5 0,-7.5 7.5,0 0,-397.5 7.5,37.5 0,7.5 0,-37.5 7.5,15 0,-15 0,30 7.5,-30 0,-7.5 0,45 0,-7.5 7.5,-37.5 0,22.5 0,-22.5 7.5,22.5 0,-37.5 0,75 0,-52.5 7.5,15 0,-22.5 0,45 0,-37.5 7.5,15 0,-37.5 0,435 0,-22.5 7.5,-15 0,-15 0,52.5 7.5,-22.5 0,45"
             style="fill:none;stroke:#0000ff;stroke-width:5.00001001;stroke-linecap:butt;stroke-linejoin:round;stroke-miterlimit:10;stroke-opacity:1;stroke-dasharray:none"
             id="path256"
             inkscape:connector-curvature="0" /><path
             d="m 2242.5,5272.51 0,-15 0,37.5 0,-22.5 7.5,-15 0,22.5 0,-7.5 7.5,0 0,-15 0,22.5 0,-7.5 7.5,7.5 0,-37.5 0,67.5 0,-52.5 7.5,15 0,-52.5 0,60 0,-22.5 7.5,22.5 0,-37.5 0,15 7.5,22.5 0,-37.5 0,30 7.5,7.5 0,-360 7.5,-7.5 0,-30 0,37.5 0,-7.5 7.5,0 0,-30 7.5,0 0,30 0,-15 7.5,-15 0,37.5 0,-37.5 7.5,30 0,-37.5 0,7.5 7.5,-7.5 0,-15 0,60 0,-22.5 7.5,15 0,-37.5 0,22.5 7.5,-15 0,-7.5 0,45 0,-22.5 7.5,-15 0,-7.5 0,405 0,-7.5 7.5,0 0,-15 7.5,15 0,-82.5 0,105 7.5,-22.5 0,-15 0,15 7.5,7.5 0,-90 0,105 0,-15 7.5,0 0,-22.5 0,37.5 0,-15 7.5,-7.5 0,-15 0,22.5 7.5,-37.5 0,52.5 0,-37.5 7.5,15 0,-30 0,37.5 0,-22.5 7.5,37.5 0,-67.5 0,45 7.5,0 0,-15 0,15 7.5,-15 0,-37.5 0,60 0,-7.5 7.5,-30 0,52.5 0,-37.5 7.5,15 0,-30 0,52.5 7.5,-37.5"
             style="fill:none;stroke:#0000ff;stroke-width:5.00001001;stroke-linecap:butt;stroke-linejoin:round;stroke-miterlimit:10;stroke-opacity:1;stroke-dasharray:none"
             id="path258"
             inkscape:connector-curvature="0" /><path
             d="m 1995,4897.51 7.5,0 0,-15 0,397.5 0,-7.5 7.5,-15 0,-15 0,37.5 0,-7.5 7.5,-30 0,30 0,-30 7.5,37.5 0,-37.5 0,37.5 7.5,-7.5 0,-52.5 0,60 0,-7.5 7.5,-15 0,22.5 7.5,-7.5 0,-30 0,37.5 7.5,30 0,-52.5 7.5,22.5 0,-22.5 0,15 7.5,7.5 0,-52.5 0,67.5 0,-37.5 7.5,15 0,-30 0,37.5 7.5,-7.5 0,7.5 0,-7.5 7.5,-15 0,15 7.5,22.5 0,22.5 0,-60 7.5,15 0,187.5 0,-202.5 7.5,15 0,-375 0,382.5 0,-367.5 7.5,-15 0,22.5 7.5,-45 0,-30 0,75 0,-37.5 7.5,-22.5 0,52.5 7.5,-30 0,37.5 0,-22.5 7.5,15 0,-30 0,37.5 7.5,-22.5 0,-22.5 0,60 0,-22.5 7.5,-30 0,30 0,-30 7.5,0 0,52.5 7.5,-60 0,382.5 7.5,15 0,-15 0,22.5 0,-7.5 7.5,-30 0,37.5 0,-7.5 7.5,-15 0,22.5 0,-22.5 7.5,15 0,-30 0,37.5 7.5,-7.5 0,-15 0,22.5 7.5,-7.5 0,-15 0,22.5 0,-7.5 7.5,22.5 0,-75 0,60 7.5,-7.5"
             style="fill:none;stroke:#0000ff;stroke-width:5.00001001;stroke-linecap:butt;stroke-linejoin:round;stroke-miterlimit:10;stroke-opacity:1;stroke-dasharray:none"
             id="path260"
             inkscape:connector-curvature="0" /><path
             d="m 1770,4882.51 0,-7.5 0,37.5 0,-15 7.5,0 0,-15 0,30 7.5,-15 0,-15 0,37.5 0,-22.5 7.5,-37.5 0,60 0,-37.5 7.5,-7.5 0,37.5 0,-30 7.5,-7.5 0,45 0,-37.5 7.5,0 0,397.5 7.5,-7.5 0,-30 0,37.5 7.5,-7.5 0,-45 0,52.5 0,-22.5 7.5,15 0,-30 0,37.5 0,-22.5 7.5,15 0,60 0,-90 7.5,30 0,-15 0,22.5 7.5,-7.5 0,-30 7.5,37.5 0,-37.5 0,37.5 7.5,-7.5 0,-30 0,37.5 0,-7.5 7.5,7.5 0,-7.5 0,7.5 7.5,0 0,-52.5 0,67.5 0,-22.5 7.5,0 0,-45 0,52.5 7.5,0 0,-225 7.5,225 0,-22.5 0,22.5 7.5,-7.5 0,-30 0,37.5 0,-7.5 7.5,0 0,-15 0,22.5 7.5,0 0,-405 7.5,22.5 0,-15 0,30 0,-15 7.5,0 0,-37.5 0,52.5 0,-30 7.5,15 0,-15 0,30 7.5,0 0,-37.5 0,45 0,-22.5 7.5,-22.5 0,37.5 0,-15 7.5,22.5 0,-37.5 0,15 7.5,-15 0,30 0,-15 7.5,0 0,-105 0,120 0,-15"
             style="fill:none;stroke:#0000ff;stroke-width:5.00001001;stroke-linecap:butt;stroke-linejoin:round;stroke-miterlimit:10;stroke-opacity:1;stroke-dasharray:none"
             id="path262"
             inkscape:connector-curvature="0" /><path
             d="m 1522.5,5257.51 0,22.5 7.5,-37.5 0,37.5 7.5,-7.5 0,-375 7.5,15 0,-37.5 7.5,45 0,-45 0,22.5 7.5,-15 0,37.5 0,-22.5 7.5,15 0,-52.5 0,37.5 7.5,22.5 0,-22.5 0,15 7.5,-15 0,37.5 0,-60 7.5,22.5 0,-22.5 0,37.5 0,-30 7.5,15 0,22.5 0,-37.5 7.5,15 0,-22.5 0,37.5 7.5,-217.5 0,225 0,-22.5 7.5,22.5 0,-45 0,405 7.5,0 0,-52.5 0,30 7.5,22.5 0,-22.5 0,180 0,-157.5 7.5,30 0,-52.5 7.5,22.5 0,-22.5 0,22.5 7.5,-22.5 0,22.5 0,-37.5 7.5,37.5 0,-22.5 7.5,15 0,-30 0,37.5 0,-22.5 7.5,22.5 0,-37.5 0,52.5 0,-15 7.5,-7.5 0,-15 0,22.5 7.5,-165 0,180 0,-22.5 7.5,-15 0,-15 0,30 0,-15 7.5,15 0,-30 0,15 7.5,0 0,37.5 0,-15 7.5,0 0,-37.5 0,15 7.5,22.5 0,-37.5 0,37.5 7.5,-7.5 0,-15 0,22.5 7.5,-382.5 0,-22.5 0,60 0,-37.5 7.5,0 0,-15 0,30 7.5,-30 0,-7.5 0,37.5 7.5,-30"
             style="fill:none;stroke:#0000ff;stroke-width:5.00001001;stroke-linecap:butt;stroke-linejoin:round;stroke-miterlimit:10;stroke-opacity:1;stroke-dasharray:none"
             id="path264"
             inkscape:connector-curvature="0" /><path
             d="m 1417.5,2970 7.5,2302.51 7.5,0 7.5,7.5 7.5,-22.5 0,22.5 0,-37.5 7.5,30 0,-15 0,22.5 0,-7.5 15,0 0,-15 7.5,-15 0,37.5 0,-7.5 7.5,7.5 0,-22.5 7.5,22.5 0,-7.5 0,7.5 7.5,15 0,-22.5 0,7.5 7.5,-7.5 0,-30 0,37.5 0,-7.5 7.5,0 0,-30 0,37.5 7.5,-22.5"
             style="fill:none;stroke:#0000ff;stroke-width:5.00001001;stroke-linecap:butt;stroke-linejoin:round;stroke-miterlimit:10;stroke-opacity:1;stroke-dasharray:none"
             id="path266"
             inkscape:connector-curvature="0" /></g></g><g
         id="g268"><g
           id="g270"
           clip-path="url(#clipPath272)"><g
             id="g276"
             transform="scale(10,10)"><text
   transform="matrix(1,0,0,-1,285.75,273)"
   id="text278"><tspan
     style="font-size:10px;font-variant:normal;font-weight:normal;writing-mode:lr-tb;fill:#000000;fill-opacity:1;fill-rule:nonzero;stroke:none;font-family:Helvetica;-inkscape-font-specification:Helvetica"
     x="0 6.1100001 8.3299999 16.66 22.219999 25 27.780001 32.779999"
     y="0"
     sodipodi:role="line"
     id="tspan280">Time [s]</tspan></text>

<text
   transform="matrix(0,1,1,0,115.5,393.751)"
   id="text282"><tspan
     style="font-size:10px;font-variant:normal;font-weight:normal;writing-mode:lr-tb;fill:#000000;fill-opacity:1;fill-rule:nonzero;stroke:none;font-family:Helvetica;-inkscape-font-specification:Helvetica"
     x="0 6.6700001 12.23 20.559999 26.120001 28.34 33.900002 36.68 43.349998 48.91 51.130001 56.689999"
     y="0"
     sodipodi:role="line"
     id="tspan284">Sample Value</tspan></text>


</g></g></g></g><path
       style="fill:none;stroke:#000000;stroke-width:1px;stroke-linecap:butt;stroke-linejoin:miter;stroke-opacity:1"
       d="m 284.69747,118.19317 -21.5386,80.38314 -128.4887,0"
       id="path3265"
       inkscape:connector-curvature="0"
       transform="matrix(0.8,0,0,-0.8,108.21973,568.28127)" /><text
       xml:space="preserve"
       style="font-size:20px;font-style:normal;font-weight:normal;line-height:125%;letter-spacing:0px;word-spacing:0px;fill:#000000;fill-opacity:1;stroke:none;font-family:Times New Roman;-inkscape-font-specification:Times New Roman"
       x="215.01082"
       y="-412.77075"
       id="text3267"
       sodipodi:linespacing="125%"
       transform="scale(1,-1)"><tspan
         sodipodi:role="line"
         id="tspan3269"
         x="215.01082"
         y="-412.77075"
         style="font-size:10px">distance increased</tspan></text>
</g></svg>