<?xml version="1.0" encoding="UTF-8" standalone="no"?>
<!-- Created with Inkscape (http://www.inkscape.org/) -->

<svg
   xmlns:dc="http://purl.org/dc/elements/1.1/"
   xmlns:cc="http://creativecommons.org/ns#"
   xmlns:rdf="http://www.w3.org/1999/02/22-rdf-syntax-ns#"
   xmlns:svg="http://www.w3.org/2000/svg"
   xmlns="http://www.w3.org/2000/svg"
   xmlns:sodipodi="http://sodipodi.sourceforge.net/DTD/sodipodi-0.dtd"
   xmlns:inkscape="http://www.inkscape.org/namespaces/inkscape"
   width="346.95776"
   height="274.07501"
   id="svg3199"
   version="1.1"
   inkscape:version="0.48.5 r10040"
   sodipodi:docname="New document 4">
  <defs
     id="defs3201">
    <marker
       inkscape:stockid="Arrow2Mend"
       orient="auto"
       refY="0"
       refX="0"
       id="Arrow2Mend"
       style="overflow:visible">
      <path
         id="path4279"
         style="fill-rule:evenodd;stroke-width:0.625;stroke-linejoin:round"
         d="M 8.7185878,4.0337352 -2.2072895,0.01601326 8.7185884,-4.0017078 c -1.7454984,2.3720609 -1.7354408,5.6174519 -6e-7,8.035443 z"
         transform="scale(-0.6,-0.6)"
         inkscape:connector-curvature="0" />
    </marker>
    <marker
       inkscape:stockid="Arrow2Lend"
       orient="auto"
       refY="0"
       refX="0"
       id="Arrow2Lend"
       style="overflow:visible">
      <path
         id="path4273"
         style="fill-rule:evenodd;stroke-width:0.625;stroke-linejoin:round"
         d="M 8.7185878,4.0337352 -2.2072895,0.01601326 8.7185884,-4.0017078 c -1.7454984,2.3720609 -1.7354408,5.6174519 -6e-7,8.035443 z"
         transform="matrix(-1.1,0,0,-1.1,-1.1,0)"
         inkscape:connector-curvature="0" />
    </marker>
    <marker
       inkscape:stockid="Arrow1Lend"
       orient="auto"
       refY="0"
       refX="0"
       id="Arrow1Lend"
       style="overflow:visible">
      <path
         id="path4255"
         d="M 0,0 5,-5 -12.5,0 5,5 0,0 z"
         style="fill-rule:evenodd;stroke:#000000;stroke-width:1pt"
         transform="matrix(-0.8,0,0,-0.8,-10,0)"
         inkscape:connector-curvature="0" />
    </marker>
  </defs>
  <sodipodi:namedview
     id="base"
     pagecolor="#ffffff"
     bordercolor="#666666"
     borderopacity="1.0"
     inkscape:pageopacity="0.0"
     inkscape:pageshadow="2"
     inkscape:zoom="1.979899"
     inkscape:cx="164.46569"
     inkscape:cy="114.10307"
     inkscape:document-units="px"
     inkscape:current-layer="layer1"
     showgrid="false"
     fit-margin-top="1"
     fit-margin-left="1"
     fit-margin-right="1"
     fit-margin-bottom="1"
     inkscape:window-width="1920"
     inkscape:window-height="1028"
     inkscape:window-x="1674"
     inkscape:window-y="-6"
     inkscape:window-maximized="1" />
  <metadata
     id="metadata3204">
    <rdf:RDF>
      <cc:Work
         rdf:about="">
        <dc:format>image/svg+xml</dc:format>
        <dc:type
           rdf:resource="http://purl.org/dc/dcmitype/StillImage" />
        <dc:title></dc:title>
      </cc:Work>
    </rdf:RDF>
  </metadata>
  <g
     inkscape:label="Layer 1"
     inkscape:groupmode="layer"
     id="layer1"
     transform="translate(-183.91214,-405.19765)">
    <g
       id="g5486"
       transform="translate(243.49035,-46.972093)" />
    <g
       id="g5840">
      <path
         inkscape:connector-curvature="0"
         d="m 406.51214,464.29765 2.5,0.25 2.25,-0.375 1.625,-0.75 0.375,-0.375 m -16.25,-10 -0.125,0.5 0,0.875 0.25,1.125 0.75,1.75 0.625,1.125 1,1.125 1.375,1.25 1.75,1.125 2,1 2.25,0.75 m -0.75,1.375 2.5,0.125 2.25,-0.25 1.625,-0.875 0.375,-0.25 m -16.25,-10 -0.125,0.5 0,0.75 0.25,1.125 0.75,1.875 0.625,1 1,1.125 1.375,1.25 1.625,1.25 2.125,1 2.25,0.625 m -0.75,1.375 2.5,0.25 2.25,-0.375 1.625,-0.75 0.375,-0.375 m -16.25,-10 -0.125,0.5 0,0.875 0.25,1.125 0.75,1.75 0.625,1.125 1,1.125 1.25,1.25 1.75,1.125 2.125,1 2.25,0.75 m -0.875,1.375 2.625,0.125 2.125,-0.25 1.75,-0.875 0.375,-0.25 m -16.25,-10 -0.125,0.5 0,0.75 0.25,1.125 0.75,1.875 0.625,1 1,1.125 1.25,1.25 1.75,1.25 2.125,1 2.25,0.625 m -0.875,1.375 2.625,0.25 2.125,-0.375 1.75,-0.75 0.375,-0.375 m -16.375,-10 0,0.5 0,0.875 0.125,1.125 0.75,1.75 0.75,1.125 0.875,1.125 1.375,1.25 1.75,1.125 2,1 2.25,0.75 m -0.75,1.375 2.5,0.125 2.25,-0.25 1.75,-0.875 0.375,-0.25 m -16.375,-10 0,0.5 0,0.75 0.125,1.125 0.75,1.875 0.75,1 0.875,1.125 1.375,1.25 1.75,1.25 2,1 2.25,0.625 m -0.75,1.375 2.5,0.25 2.25,-0.375 1.75,-0.75 0.25,-0.375 m -16.25,-10 -0.125,0.5 0,0.875 0.25,1.125 0.75,1.75 0.625,1.125 1,1.125 1.375,1.25 1.75,1.125 2,1 2.25,0.75 m -0.75,1.375 2.5,0.125 2.25,-0.25 1.625,-0.875 0.375,-0.25 m -16.25,-10 -0.125,0.5 0,0.75 0.25,1.25 0.75,1.75 0.625,1 1,1.25 1.375,1.125 1.625,1.25 2.125,1 2.25,0.625 m -0.75,1.375 2.5,0.25 2.25,-0.375 1.625,-0.75 0.375,-0.375 m -16.25,-10 -0.125,0.5 0,0.875 0.25,1.125 0.75,1.75 0.625,1.125 1,1.125 1.375,1.25 1.625,1.125 2.125,1 2.25,0.75 m -0.75,1.375 2.5,0.125 2.25,-0.25 1.625,-0.875 0.375,-0.25 m -16.25,-10 -0.125,0.5 0,0.75 0.25,1.25 0.75,1.75 0.625,1 1,1.25 1.25,1.125 1.75,1.25 2.125,1 2.25,0.625 m -0.875,1.375 2.625,0.25 2.125,-0.375 1.75,-0.75 0.375,-0.375 m -16.375,-10 0,0.5 0,0.875 0.25,1.125 0.625,1.75 0.75,1.125 1,1.125 1.25,1.25 1.75,1.125 2.125,1 2.25,0.75 m -0.875,1.375 2.625,0.125 2.125,-0.25 1.75,-0.875 0.375,-0.25 m -16.375,-10 0,0.5 0,0.75 0.125,1.25 0.75,1.75 0.75,1 0.875,1.25 1.375,1.125 1.75,1.25 2,1 2.25,0.625 m -0.75,1.375 2.5,0.25 2.25,-0.375 1.75,-0.75 0.25,-0.375 m -16.25,-10 -0.125,0.5 0.125,0.875 0.125,1.125 0.75,1.75 0.75,1.125 0.875,1.125 1.375,1.25 1.75,1.125 2,1 2.25,0.75 m -0.75,1.375 2.5,0.125 2.25,-0.25 1.625,-0.875 0.375,-0.25 m -16.25,-10 -0.125,0.5 0,0.75 0.25,1.25 0.75,1.75 0.625,1 1,1.25 1.375,1.125 1.75,1.25 2,1 2.25,0.625 m -0.75,1.375 2.5,0.25 2.25,-0.375 1.625,-0.75 0.375,-0.375 m -16.25,-10 -0.125,0.5 0,0.875 0.25,1.125 0.75,1.75 0.625,1.125 1,1.125 1.375,1.25 1.625,1.125 2.125,1 2.25,0.75 m -0.75,1.375 2.5,0.125 2.25,-0.25 1.625,-0.875 0.375,-0.25 m -16.25,-10 -0.125,0.5 0,0.75 0.25,1.25 0.75,1.75 0.625,1 1,1.25 1.25,1.125 1.75,1.25 2.125,1 2.25,0.625 m -0.875,1.375 2.625,0.25 2.125,-0.375 1.75,-0.75 0.375,-0.375 m -16.25,-10 -0.125,0.5 0,0.875 0.25,1.125 0.75,1.75 0.625,1.125 1,1.125 1.25,1.25 1.75,1.125 2.125,1 2.25,0.75 m -0.875,1.375 2.625,0.125 2.125,-0.25 1.75,-0.875 0.375,-0.25 m -16.375,-10 0,0.5 0,0.75 0.125,1.25 0.75,1.75 0.75,1 0.875,1.25 1.375,1.125 1.75,1.25 2,1 2.25,0.625 m -0.75,1.375 2.5,0.25 2.25,-0.375 1.75,-0.75 0.375,-0.375 m -16.375,-10 0,0.5 0,0.875 0.125,1.125 0.75,1.75 0.75,1.125 0.875,1.125 1.375,1.25 1.75,1.125 2,1 2.25,0.75 m -0.75,1.375 2.5,0.125 2.25,-0.25 1.75,-0.875 0.25,-0.25 m -16.25,-10 -0.125,0.5 0,0.75 0.25,1.25 0.75,1.75 0.625,1 1,1.25 1.375,1.125 1.75,1.25 2,1 2.25,0.625 m -0.75,1.375 2.5,0.25 2.25,-0.375 1.625,-0.75 0.375,-0.375 m -16.25,-10 -0.125,0.5 0,0.875 0.25,1.125 0.75,1.75 0.625,1.125 1,1.125 1.375,1.25 1.625,1.125 2.125,1 2.25,0.75 m -0.75,1.375 2.5,0.25 2.25,-0.375 1.625,-0.875 0.375,-0.25 m -16.25,-10 -0.125,0.5 0,0.75 0.25,1.25 0.75,1.75 0.625,1 1,1.25 1.375,1.125 1.625,1.25 2.125,1 2.25,0.625 m -0.75,1.375 2.5,0.25 2.125,-0.375 1.75,-0.75 0.375,-0.375 m -16.25,-10 -0.125,0.5 0,0.875 0.25,1.125 0.75,1.75 0.625,1.125 1,1.125 1.25,1.25 1.75,1.125 2.125,1 2.25,0.75 m -0.875,1.375 2.625,0.25 2.125,-0.375 1.75,-0.875 0.375,-0.25 m -16.375,-10 0,0.5 0,0.75 0.25,1.25 0.625,1.75 0.75,1 1,1.25 1.25,1.125 1.75,1.25 2.125,1 2.25,0.625 m -0.875,1.375 2.625,0.25 2.125,-0.375 1.75,-0.75 0.375,-0.375 m -16.375,-10 0,0.5 0,0.875 0.125,1.125 0.75,1.75 0.75,1.125 0.875,1.125 1.375,1.25 1.75,1.125 2,1 2.25,0.75 m -0.75,1.375 2.5,0.25 2.25,-0.375 1.75,-0.875 0.25,-0.25 m -16.25,-10 -0.125,0.5 0.125,0.75 0.125,1.25 0.75,1.75 0.75,1 0.875,1.25 1.375,1.125 1.75,1.25 2,1 2.25,0.625 m -0.75,1.375 2.5,0.25 2.25,-0.375 1.625,-0.75 0.375,-0.375 m -16.25,-10 -0.125,0.5 0,0.875 0.25,1.125 0.75,1.75 0.625,1.125 1,1.125 1.375,1.25 1.75,1.125 2,1 2.25,0.75 m -0.75,1.375 2.5,0.25 2.25,-0.375 1.625,-0.875 0.375,-0.25 m -16.25,-10 -0.125,0.5 0,0.75 0.25,1.25 0.75,1.75 0.625,1 1,1.25 1.375,1.125 1.625,1.25 2.125,1 2.25,0.625 m -0.75,1.375 2.5,0.25 2.25,-0.375 1.625,-0.75 0.375,-0.375 m -16.25,-10 -0.125,0.5 0,0.875 0.25,1.125 0.75,1.75 0.625,1.125 1,1.125 1.25,1.25 1.75,1.125 2.125,1 2.25,0.75 m -0.875,1.375 2.625,0.25 2.125,-0.375 1.75,-0.875 0.375,-0.25 m -16.25,-10 -0.125,0.5 0,0.75 0.25,1.25 0.625,1.75 0.75,1 1,1.25 1.25,1.125 1.75,1.25 2.125,1 2.25,0.625 m -0.875,1.375 2.625,0.25 2.125,-0.375 1.75,-0.75 0.375,-0.375 m -16.375,-10 0,0.5 0,0.875 0.125,1.125 0.75,1.75 0.75,1.125 0.875,1.125 1.375,1.25 1.75,1.125 2,1 2.25,0.75 m -0.75,1.375 2.5,0.25 2.25,-0.375 1.75,-0.875 0.375,-0.25 m -16.375,-10 0,0.5 0,0.75 0.125,1.25 0.75,1.75 0.75,1 0.875,1.25 1.375,1.125 1.75,1.25 2,1 2.25,0.625 m -0.75,1.375 2.5,0.25 2.25,-0.375 1.75,-0.75 0.25,-0.375 m -16.25,-10 -0.125,0.5 0,0.875 0.25,1.125 0.75,1.75 0.625,1.125 1,1.125 1.375,1.25 1.75,1.125 2,1 2.25,0.75 m -0.75,1.375 2.5,0.25 2.25,-0.375 1.625,-0.875 0.375,-0.25 m -16.25,-10 -0.125,0.5 0,0.75 0.25,1.25 0.75,1.75 0.625,1 1,1.25 1.375,1.125 1.625,1.25 2.125,1 2.25,0.625 m -0.75,1.375 2.5,0.25 2.25,-0.375 1.625,-0.75 0.375,-0.375 m -16.25,-10 -0.125,0.5 0,0.875 0.25,1.125 0.75,1.75 0.625,1.125 1,1.125 1.25,1.25 1.75,1.125 2.125,1 2.25,0.75 m -0.75,1.375 2.5,0.25 2.125,-0.375 1.75,-0.875 0.375,-0.25 m -16.25,-10 -0.125,0.5 0,0.75 0.25,1.25 0.75,1.75 0.625,1 1,1.25 1.25,1.125 1.75,1.25 2.125,1 2.25,0.625 m -0.875,1.375 2.625,0.25 2.125,-0.375 1.75,-0.75 0.375,-0.375 m -16.375,-10 0,0.5 0,0.875 0.25,1.125 0.625,1.75 0.75,1.125 1,1.125 1.25,1.25 1.75,1.125 2,1 2.375,0.75 m -0.875,1.375 2.625,0.25 2.125,-0.375 1.75,-0.875 0.375,-0.25 m -16.375,-10 0,0.5 0,0.75 0.125,1.25 0.75,1.75 0.75,1 0.875,1.25 1.375,1.125 1.75,1.25 2,1 2.25,0.625 m -0.75,1.375 2.5,0.25 2.25,-0.375 1.75,-0.75 0.25,-0.375 m -16.25,-10 -0.125,0.5 0.125,0.875 0.125,1.125 0.75,1.75 0.75,1.125 0.875,1.125 1.375,1.25 1.75,1.125 2,1 2.25,0.75 m -0.75,1.375 2.5,0.25 2.25,-0.375 1.625,-0.875 0.375,-0.25 m -16.25,-10 -0.125,0.5 0,0.75 0.25,1.25 0.75,1.75 0.625,1 1,1.25 1.375,1.125 1.75,1.25 2,1 2.25,0.625 m -0.75,1.375 2.5,0.25 2.25,-0.375 1.625,-0.75 0.375,-0.375 m -16.25,-10 -0.125,0.5 0,0.875 0.25,1.125 0.75,1.75 0.625,1.125 1,1.125 1.375,1.25 1.625,1.125 2.125,1 2.25,0.75 m -0.75,1.375 2.5,0.25 2.25,-0.375 1.625,-0.875 0.375,-0.25 m -16.25,-10 -0.125,0.5 0,0.75 0.25,1.25 0.75,1.75 0.625,1 1,1.25 1.25,1.125 1.75,1.25 2.125,1 2.25,0.625 m -0.875,1.375 2.625,0.25 2.125,-0.375 1.75,-0.75 0.375,-0.375 m -16.25,-10 -0.125,0.5 0,0.875 0.25,1.125 0.625,1.75 0.75,1.125 1,1.125 1.25,1.25 1.75,1.125 2.125,1 2.25,0.75 m -0.875,1.375 2.625,0.25 2.125,-0.375 1.75,-0.875 0.375,-0.25 m -16.375,-10 0,0.5 0,0.75 0.125,1.25 0.75,1.75 0.75,1 0.875,1.25 1.375,1.125 1.75,1.25 2,1 2.25,0.625 m -0.75,1.375 2.5,0.25 2.25,-0.375 1.75,-0.75 0.375,-0.375 m -16.375,-10 0,0.5 0,0.875 0.125,1.125 0.75,1.75 0.75,1.125 0.875,1.125 1.375,1.25 1.75,1.125 2,1 2.25,0.75 m -0.75,1.375 2.5,0.25 2.25,-0.375 1.625,-0.875 0.375,-0.25 m -16.25,-10 -0.125,0.5 0,0.75 0.25,1.25 0.75,1.75 0.625,1 1,1.25 1.375,1.125 1.75,1.25 2,1 2.25,0.625 m -0.75,1.375 2.5,0.25 2.25,-0.375 1.625,-0.75 0.375,-0.375 m -16.25,-10 -0.125,0.5 0,0.875 0.25,1.125 0.75,1.75 0.625,1.125 1,1.125 1.375,1.25 1.625,1.125 2.125,1.125 2.25,0.625 m -0.75,1.375 2.5,0.25 2.25,-0.375 1.625,-0.875 0.375,-0.25 m -16.25,-10 -0.125,0.5 0,0.75 0.25,1.25 0.75,1.75 0.625,1 1,1.25 1.25,1.125 1.75,1.25 2.125,1 2.25,0.625 m -0.875,1.375 2.625,0.25 2.125,-0.375 1.75,-0.75 0.375,-0.375 m -16.25,-10 -0.125,0.5 0,0.875 0.25,1.125 0.75,1.75 0.625,1.125 1,1.125 1.25,1.25 1.75,1.125 2.125,1.125 2.25,0.625 m -0.875,1.375 2.625,0.25 2.125,-0.375 1.75,-0.875 0.375,-0.25 m -16.375,-10 0,0.5 0,0.75 0.25,1.25 0.625,1.75 0.75,1 1,1.25 1.25,1.125 1.75,1.25 2,1 2.25,0.625 m -0.75,1.375 2.625,0.25 2.125,-0.375 1.75,-0.75 0.375,-0.375 m -16.375,-10 0,0.5 0,0.875 0.125,1.125 0.75,1.75 0.75,1.125 0.875,1.125 1.375,1.25 1.75,1.25 2,1 2.25,0.625 m -0.75,1.375 2.5,0.25 2.25,-0.375 1.75,-0.875 0.25,-0.25 m -16.25,-10 -0.125,0.5 0.125,0.75 0.125,1.25 0.75,1.75 0.75,1 0.875,1.25 1.375,1.125 1.75,1.25 2,1 2.25,0.625 m -0.75,1.375 2.5,0.25 2.25,-0.375 1.625,-0.75 0.375,-0.375 m -16.25,-10 -0.125,0.5 0,0.875 0.25,1.125 0.75,1.75 0.625,1.125 1,1.125 1.375,1.25 1.75,1.25 2,1 2.25,0.625 m -0.75,1.375 2.5,0.25 2.25,-0.375 1.625,-0.875 0.375,-0.25 m -16.25,-10 -0.125,0.5 0,0.75 0.25,1.25 0.75,1.75 0.625,1 1,1.25 1.375,1.25 1.625,1.125 2.125,1 2.25,0.625 m -0.75,1.375 2.5,0.25 2.25,-0.375 1.625,-0.75 0.375,-0.375 m -16.25,-10 -0.125,0.5 0,0.875 0.25,1.125 0.75,1.75 0.625,1.125 1,1.125 1.25,1.25 1.75,1.25 2.125,1 2.25,0.625 m -0.875,1.375 2.625,0.25 2.125,-0.375 1.75,-0.875 0.375,-0.25 m -16.375,-10 0,0.5 0,0.75 0.25,1.25 0.625,1.75 0.75,1 1,1.25 1.25,1.25 1.75,1.125 2.125,1 2.25,0.625 m -0.875,1.375 2.625,0.25 2.125,-0.375 1.75,-0.75 0.375,-0.375 m -16.375,-10 0,0.5 0,0.875 0.125,1.125 0.75,1.75 0.75,1.125 0.875,1.125 1.375,1.25 1.75,1.25 2,1 2.25,0.625 m -0.75,1.375 2.5,0.25 2.25,-0.375 1.75,-0.875 0.375,-0.25 m -16.375,-10 0,0.5 0,0.75 0.125,1.25 0.75,1.75 0.75,1 0.875,1.25 1.375,1.25 1.75,1.125 2,1 2.25,0.625 m -0.75,1.375 2.5,0.25 2.25,-0.375 1.625,-0.75 0.375,-0.375 m -16.25,-10 -0.125,0.5 0,0.875 0.25,1.125 0.75,1.75 0.625,1.125 1,1.125 1.375,1.25 1.75,1.25 2,1 2.25,0.625 m -0.75,1.375 2.5,0.25 2.25,-0.375 1.625,-0.875 0.375,-0.25 m -16.25,-10 -0.125,0.5 0,0.75 0.25,1.25 0.75,1.75 0.625,1 1,1.25 1.375,1.25 1.625,1.125 2.125,1 2.25,0.625 m -0.75,1.375 2.5,0.25 2.25,-0.375 1.625,-0.75 0.375,-0.375 m -16.25,-10 -0.125,0.5 0,0.875 0.25,1.125 0.75,1.75 0.625,1.125 1,1.125 1.25,1.25 1.75,1.25 2.125,1 2.25,0.625 m -0.875,1.375 2.625,0.25 2.125,-0.375 1.75,-0.875 0.375,-0.25 m -16.25,-10 -0.125,0.5 0,0.75 0.25,1.25 0.75,1.75 0.625,1 1,1.25 1.25,1.25 1.75,1.125 2.125,1 2.25,0.625 m -0.875,1.375 2.625,0.25 2.125,-0.375 1.75,-0.75 0.375,-0.375 m -16.375,-10 0,0.5 0,0.875 0.25,1.125 0.625,1.75 0.75,1.125 0.875,1.125 1.375,1.25 1.75,1.25 2,1 2.25,0.625 m -0.75,1.375 2.5,0.25 2.25,-0.375 1.75,-0.75 0.375,-0.375 m -16.375,-10 0,0.5 0,0.75 0.125,1.25 0.75,1.75 0.75,1 0.875,1.25 1.375,1.25 1.75,1.125 2,1 2.25,0.625 m -0.75,1.375 2.5,0.25 2.25,-0.375 1.75,-0.75 0.25,-0.375 m -16.25,-10 -0.125,0.5 0.125,0.875 0.125,1.125 0.75,1.75 0.625,1.125 1,1.125 1.375,1.25 1.75,1.25 2,1 2.25,0.625 m -0.75,1.375 2.5,0.25 2.25,-0.375 1.625,-0.75 0.375,-0.375 m -16.25,-10 -0.125,0.5 0,0.75 0.25,1.25 0.75,1.75 0.625,1 1,1.25 1.375,1.25 1.625,1.125 2.125,1 2.25,0.625 m -0.75,1.375 2.5,0.25 2.25,-0.375 1.625,-0.75 0.375,-0.375 m -16.25,-10 -0.125,0.5 0,0.875 0.25,1.125 0.75,1.75 0.625,1.125 1,1.125 1.375,1.25 1.625,1.25 2.125,1 2.25,0.625 m -0.75,1.375 2.5,0.25 2.25,-0.375 1.625,-0.75 0.375,-0.375 m -16.25,-10 -0.125,0.5 0,0.75 0.25,1.25 0.75,1.75 0.625,1 1,1.25 1.25,1.25 1.75,1.125 2.125,1 2.25,0.625 m -0.875,1.375 2.625,0.25 2.125,-0.375 1.75,-0.75 0.375,-0.375 m -16.375,-10 0,0.5 0,0.875 0.25,1.125 0.625,1.75 0.75,1.125 1,1.125 1.25,1.25 1.75,1.25 2.125,1 2.25,0.625 m 32.375,-48 -0.5,0.375 -2.25,0.625 -3,-0.125 m -0.375,0.625 -3.25,-1 -2.5,-1.625 -1.625,-1.625 -1,-1.375 -0.75,-2 0,-0.375 m 8.625,8.75 -3.125,-1.125 -2.5,-1.625 -1.625,-1.625 -1,-1.25 -0.75,-2.125 0,-0.375 m 8.625,8.75 -3.125,-1 -2.5,-1.625 -1.625,-1.625 -1,-1.375 -0.75,-2 0,-0.375 m 8.625,8.75 -3.125,-1.125 -2.625,-1.625 -1.625,-1.625 -0.875,-1.25 -0.75,-2.125 0,-0.375 m 8.625,8.75 -3.25,-1 -2.5,-1.625 -1.625,-1.625 -0.875,-1.375 -0.75,-2 0,-0.375 m 8.625,8.75 -3.25,-1.125 -2.5,-1.625 -1.625,-1.625 -0.875,-1.25 -0.875,-2.125 0,-0.375 m 8.75,8.75 -3.25,-1 -2.5,-1.625 -1.625,-1.625 -0.875,-1.375 -0.875,-2 0,-0.375 m 8.625,8.75 -3.125,-1.125 -2.5,-1.625 -1.625,-1.625 -1,-1.25 -0.75,-2.125 0,-0.375 m 8.625,8.875 -3.125,-1.125 -2.5,-1.625 -1.625,-1.625 -1,-1.375 -0.75,-2 0,-0.375 m 8.625,8.75 -3.125,-1.125 -2.625,-1.625 -1.625,-1.625 -0.875,-1.25 -0.75,-2.125 0,-0.375 m 8.625,8.875 -3.25,-1.125 -2.5,-1.625 -1.625,-1.625 -0.875,-1.375 -0.75,-2 0,-0.375 m 8.625,8.75 -3.25,-1.125 -2.5,-1.625 -1.625,-1.625 -0.875,-1.25 -0.875,-2.125 0,-0.375 m 8.75,8.875 -3.25,-1.125 -2.5,-1.625 -1.625,-1.625 -0.875,-1.375 -0.875,-2 0,-0.375 m 8.625,8.75 -3.125,-1.125 -2.5,-1.625 -1.625,-1.625 -1,-1.25 -0.75,-2.125 0,-0.375 m 8.625,8.875 -3.125,-1.125 -2.5,-1.625 -1.625,-1.625 -1,-1.375 -0.75,-2 0,-0.375 m 8.625,8.75 -3.125,-1.125 -2.5,-1.625 -1.625,-1.625 -1,-1.25 -0.75,-2.125 0,-0.375 m 8.625,8.875 -3.25,-1.125 -2.5,-1.625 -1.625,-1.625 -0.875,-1.375 -0.75,-2 0,-0.375 m 8.625,8.75 -3.25,-1.125 -2.5,-1.625 -1.625,-1.625 -0.875,-1.25 -0.75,-2.125 0,-0.375 m 8.625,8.875 -3.25,-1.125 -2.5,-1.625 -1.625,-1.625 -0.875,-1.375 -0.875,-2 0,-0.375 m 8.75,8.75 -3.25,-1.125 -2.5,-1.625 -1.625,-1.625 -0.875,-1.25 -0.875,-2 0,-0.5 m 8.625,8.875 -3.125,-1.125 -2.5,-1.625 -1.625,-1.625 -1,-1.375 -0.75,-2 0,-0.375 m 8.625,8.75 -3.125,-1.125 -2.5,-1.625 -1.625,-1.625 -1,-1.25 -0.75,-2 0,-0.5 m 8.625,8.875 -3.125,-1.125 -2.625,-1.625 -1.625,-1.625 -0.875,-1.375 -0.75,-2 0,-0.375 m 8.625,8.75 -3.25,-1.125 -2.5,-1.625 -1.625,-1.625 -0.875,-1.25 -0.75,-2 0,-0.5 m 8.625,8.875 -3.25,-1.125 -2.5,-1.625 -1.625,-1.625 -0.875,-1.375 -0.875,-2 0,-0.375 m 8.75,8.75 -3.25,-1.125 -2.5,-1.625 -1.625,-1.625 -0.875,-1.25 -0.875,-2 0,-0.5 m 8.625,8.875 -3.125,-1.125 -2.5,-1.625 -1.625,-1.625 -1,-1.375 -0.75,-2 0,-0.375 m 8.625,8.75 -3.125,-1.125 -2.5,-1.625 -1.625,-1.625 -1,-1.25 -0.75,-2 0,-0.5 m 8.25,9.5 -3.25,-1.125 -2.5,-1.625 -1.625,-1.625 -0.875,-1.25 -0.75,-2 0,-0.5 m 8.625,8.875 -3.25,-1.125 -2.5,-1.625 -1.625,-1.625 -0.875,-1.375 -0.75,-2 0,-0.375 m 8.625,8.75 -3.25,-1.125 -2.5,-1.625 -1.625,-1.625 -0.875,-1.25 -0.875,-2 0,-0.5 m 8.75,8.875 -3.25,-1.125 -2.5,-1.625 -1.625,-1.625 -1,-1.375 -0.75,-2 0,-0.375 m 8.625,8.75 -3.125,-1.125 -2.5,-1.625 -1.625,-1.625 -1,-1.25 -0.75,-2 0,-0.5 m 8.625,8.875 -3.125,-1.125 -2.5,-1.625 -1.625,-1.625 -1,-1.375 -0.75,-2 0,-0.375 m 8.625,8.75 -3.125,-1.125 -2.625,-1.625 -1.625,-1.625 -0.875,-1.25 -0.75,-2 0,-0.5 m 8.625,8.875 -3.25,-1.125 -2.5,-1.625 -1.625,-1.625 -0.875,-1.375 -0.75,-2 0,-0.375 m 8.625,8.75 -3.25,-1.125 -2.5,-1.625 -1.625,-1.625 -0.875,-1.25 -0.875,-2 0,-0.5 m 8.75,8.875 -3.25,-1.125 -2.5,-1.625 -1.625,-1.625 -0.875,-1.375 -0.875,-2 0,-0.375 m 8.625,8.75 -3.125,-1.125 -2.5,-1.625 -1.625,-1.625 -1,-1.25 -0.75,-2 0,-0.5 m 8.625,8.875 -3.125,-1.125 -2.5,-1.625 -1.625,-1.625 -1,-1.375 -0.75,-2 0,-0.375 m 8.625,8.75 -3.125,-1.125 -2.5,-1.625 -1.625,-1.625 -1,-1.25 -0.75,-2 0,-0.5 m 8.625,8.875 -3.25,-1.125 -2.5,-1.625 -1.625,-1.625 -0.875,-1.375 -0.75,-2 0,-0.375 m 8.625,8.75 -3.25,-1.125 -2.5,-1.625 -1.625,-1.625 -0.875,-1.25 -0.75,-2 0,-0.5 m 8.625,8.875 -3.25,-1.125 -2.5,-1.625 -1.625,-1.625 -0.875,-1.375 -0.875,-2 0,-0.375 m 8.75,8.75 -3.25,-1.125 -2.5,-1.625 -1.625,-1.625 -1,-1.25 -0.75,-2 0,-0.5 m 8.625,8.875 -3.125,-1.125 -2.5,-1.625 -1.625,-1.625 -1,-1.375 -0.75,-2 0,-0.375 m 8.625,8.75 -3.125,-1.125 -2.5,-1.625 -1.625,-1.625 -1,-1.25 -0.75,-2 0,-0.5 m 8.625,8.875 -3.125,-1.125 -2.625,-1.625 -1.625,-1.625 -0.875,-1.375 -0.75,-2 0,-0.375 m 8.625,8.75 -3.25,-1.125 -2.5,-1.625 -1.625,-1.625 -0.875,-1.25 -0.75,-2 0,-0.5 m 8.625,8.875 -3.25,-1.125 -2.5,-1.625 -1.625,-1.625 -0.875,-1.375 -0.875,-2 0,-0.375 m 8.75,8.75 -3.25,-1.125 -2.5,-1.625 -1.625,-1.625 -0.875,-1.25 -0.875,-2 0,-0.5 m 8.625,8.875 -3.125,-1.125 -2.5,-1.625 -1.625,-1.625 -1,-1.375 -0.75,-2 0,-0.375 m 8.625,8.75 -3.125,-1.125 -2.5,-1.625 -1.625,-1.5 -1,-1.375 -0.75,-2 0,-0.5 m 31.125,-30.375 -3.25,-1.125 -2.5,-1.625 -1.625,-1.625 -0.875,-1.25 -0.75,-2.125 0,-1.875 m 15.5,8.25 -0.375,0.5 -1.25,1 -2.25,0.75 -2.625,-0.125 m -0.625,1 2.5,0.125 2.25,-0.25 1.75,-0.875 1.125,-1 0.625,-1.125 0.375,-1.125 0.125,-1.125 -0.125,-0.5 m -15.25,-9 -0.375,0.125 -1,0.75 -0.875,1.125 -0.5,1.125 -0.125,1 0,0.75 0.125,1.125 0.75,1.875 0.75,1 0.875,1.125 1.375,1.25 1.75,1.25 2,1 2.25,0.625 m -44,163 1.125,-1.5 1.625,-1.125 1.75,-0.875 1.625,-0.5 3.25,-0.375 3.375,0.5 2.375,1.25 1.25,1.375 0.625,1.5 m -23.75,-54.75 -0.5,1.5 -0.125,0.375 m 19.375,-1.5 -0.125,-0.5 -0.75,-1.125 -0.875,-0.75 -0.75,-0.625 -1,-0.5 -2.5,-0.75 -1.625,-0.25 -1.875,0 -2.25,0.375 -2.5,0.875 -2.5,1.5 -1.875,2.125 -0.625,1.5 0,0.5 m 19.375,-1.625 -0.125,-0.375 -0.75,-1.125 -0.875,-0.875 -0.75,-0.625 -1,-0.5 -2.5,-0.75 -1.625,-0.25 -1.875,0 -2.25,0.375 -2.5,0.875 -2.5,1.5 -1.875,2.125 -0.625,1.5 0,0.5 m 19.25,-1.625 -0.125,-0.375 -0.75,-1.125 -0.75,-0.875 -0.875,-0.5 -0.875,-0.5 -2.625,-0.875 -1.5,-0.125 -2,0 -2.25,0.25 -2.5,0.875 -2.5,1.5 -1.875,2.25 -0.5,1.5 -0.125,0.375 m 19.375,-1.5 -0.125,-0.5 -0.75,-1.125 -0.875,-0.75 -0.75,-0.625 -1,-0.5 -2.5,-0.875 -1.625,-0.125 -1.875,0 -2.25,0.375 -2.5,0.75 -2.5,1.625 -1.875,2.125 -0.625,1.5 0,0.375 m 19.375,-1.375 -0.125,-0.625 -0.75,-1.125 -0.875,-0.75 -0.75,-0.625 -1,-0.5 -2.5,-0.75 -1.625,-0.25 -1.875,0 -2.25,0.375 -2.5,0.875 -2.5,1.5 -1.875,2.125 -0.625,1.5 0,0.5 m 19.25,-1.625 -0.125,-0.375 -0.75,-1.125 -0.75,-0.875 -0.875,-0.625 -0.875,-0.5 -2.625,-0.75 -1.5,-0.25 -2,0 -2.25,0.375 -2.5,0.875 -2.5,1.5 -1.875,2.25 -0.5,1.375 -0.125,0.5 m 19.375,-1.5 -0.125,-0.5 -0.75,-1.125 -0.875,-0.875 -0.75,-0.5 -1,-0.5 -2.5,-0.875 -1.625,-0.125 -1.875,0 -2.25,0.25 -2.5,0.875 -2.5,1.5 -1.875,2.25 -0.625,1.5 0,0.375 m 19.375,-1.5 -0.125,-0.5 -0.75,-1.125 -0.875,-0.75 -0.75,-0.625 -1,-0.5 -2.5,-0.75 -1.625,-0.25 -1.875,0 -2.25,0.375 -2.5,0.75 -2.5,1.625 -1.875,2.125 -0.625,1.5 0,0.375 m 19.375,-1.375 -0.25,-0.625 -0.75,-1.125 -0.75,-0.75 -0.875,-0.625 -0.875,-0.5 -2.625,-0.75 -1.5,-0.25 -2,0 -2.25,0.375 -2.5,0.875 -2.5,1.5 -1.875,2.125 -0.5,1.5 -0.125,0.5 m 19.375,-1.5 -0.125,-0.5 -0.75,-1.125 -0.875,-0.875 -0.75,-0.625 -1,-0.5 -2.5,-0.75 -1.625,-0.25 -1.875,0.125 -2.25,0.25 -2.5,0.875 -2.5,1.5 -1.875,2.25 -0.625,1.375 0,0.5 m 19.375,-1.5 -0.125,-0.5 -0.75,-1.125 -0.875,-0.875 -0.75,-0.5 -1,-0.5 -2.5,-0.875 -1.625,-0.125 -1.875,0 -2.25,0.25 -2.5,0.875 -2.5,1.5 -1.875,2.25 -0.625,1.5 0,0.375 m 19.25,-1.5 -0.125,-0.5 -0.75,-1.125 -0.75,-0.75 -0.875,-0.625 -0.875,-0.5 -2.625,-0.75 -1.5,-0.25 -2,0 -2.25,0.375 -2.5,0.75 -2.5,1.625 -1.75,2.125 -0.625,1.5 -0.125,0.5 m 19.375,-1.625 -0.125,-0.5 -0.75,-1.125 -0.875,-0.75 -0.75,-0.625 -1,-0.5 -2.5,-0.75 -1.625,-0.25 -1.875,0 -2.25,0.375 -2.5,0.875 -2.5,1.5 -1.875,2.125 -0.625,1.5 0,0.5 m 19.375,-1.5 -0.125,-0.5 -0.75,-1.125 -0.875,-0.875 -0.75,-0.5 -1,-0.5 -2.5,-0.875 -1.625,-0.125 -1.875,0 -2.25,0.25 -2.5,0.875 -2.5,1.5 -1.875,2.25 -0.625,1.375 0,0.5 m 19.375,-1.5 -0.25,-0.5 -0.75,-1.125 -0.75,-0.875 -0.875,-0.5 -0.875,-0.5 -2.625,-0.875 -1.5,-0.125 -2,0 -2.25,0.375 -2.5,0.75 -2.5,1.625 -1.75,2.125 -0.625,1.5 -0.125,0.375 m 19.375,-1.375 -0.125,-0.625 -0.75,-1.125 -0.875,-0.75 -0.75,-0.625 -1,-0.5 -2.5,-0.75 -1.625,-0.25 -1.875,0 -2.25,0.375 -2.5,0.875 -2.5,1.5 -1.875,2.125 -0.625,1.5 0,0.5 m 19.375,-1.5 -0.125,-0.5 -0.75,-1.25 -0.875,-0.75 -0.75,-0.625 -1,-0.5 -2.5,-0.75 -1.625,-0.25 -1.875,0 -2.25,0.375 -2.5,0.875 -2.5,1.5 -1.875,2.125 -0.625,1.5 0,0.5 m 19.375,-1.5 -0.25,-0.5 -0.75,-1.125 -0.75,-0.875 -0.875,-0.5 -0.875,-0.5 -2.625,-0.875 -1.5,-0.125 -2,0 -2.25,0.25 -2.5,0.875 -2.5,1.5 -1.75,2.25 -0.625,1.5 -0.125,0.375 m 19.375,-1.5 -0.125,-0.5 -0.75,-1.125 -0.875,-0.875 -0.75,-0.5 -1,-0.5 -2.5,-0.875 -1.625,-0.125 -1.875,0 -2.25,0.375 -2.5,0.75 -2.5,1.625 -1.875,2.125 -0.625,1.5 0,0.375 m 19.375,-1.375 -0.125,-0.625 -0.75,-1.125 -0.875,-0.75 -0.75,-0.625 -1,-0.5 -2.5,-0.75 -1.625,-0.25 -1.875,0 -2.25,0.375 -2.5,0.875 -2.5,1.5 -1.875,2.125 -0.625,1.5 0,0.5 m 19.375,-1.5 -0.25,-0.5 -0.75,-1.125 -0.75,-0.875 -0.875,-0.625 -0.875,-0.5 -2.625,-0.75 -1.5,-0.25 -2,0 -2.25,0.375 -2.5,0.875 -2.5,1.5 -1.75,2.125 -0.625,1.5 -0.125,0.5 m 19.375,-1.5 -0.125,-0.5 -0.75,-1.125 -0.875,-0.875 -0.75,-0.5 -1,-0.5 -2.5,-0.875 -1.625,-0.125 -1.875,0 -2.25,0.25 -2.5,0.875 -2.5,1.5 -1.875,2.25 -0.625,1.5 0,0.375 m 19.375,-1.5 -0.125,-0.5 -0.75,-1.125 -0.875,-0.75 -0.75,-0.625 -1,-0.5 -2.5,-0.875 -1.625,-0.125 -1.875,0 -2.25,0.375 -2.5,0.75 -2.5,1.625 -1.875,2.125 -0.625,1.5 0,0.375 m 19.375,-1.375 -0.25,-0.625 -0.75,-1.125 -0.75,-0.75 -0.875,-0.625 -0.875,-0.5 -2.625,-0.75 -1.5,-0.25 -2,0 -2.25,0.375 -2.5,0.875 -2.5,1.5 -1.75,2.125 -0.625,1.5 -0.125,0.5 m 19.375,-1.5 -0.125,-0.5 -0.75,-1.125 -0.875,-0.875 -0.75,-0.625 -1,-0.5 -2.5,-0.75 -1.625,-0.25 -1.875,0 -2.25,0.375 -2.5,0.875 -2.5,1.5 -1.875,2.25 -0.625,1.375 0,0.5 m 19.375,-1.5 -0.125,-0.5 -0.75,-1.125 -0.875,-0.875 -0.75,-0.5 -1,-0.5 -2.5,-0.875 -1.625,-0.125 -1.875,0 -2.25,0.25 -2.5,0.875 -2.5,1.5 -1.875,2.25 -0.625,1.5 0,0.375 m 19.375,-1.5 -0.25,-0.5 -0.75,-1.125 -0.75,-0.75 -0.875,-0.625 -0.875,-0.5 -2.625,-0.75 -1.5,-0.25 -2,0 -2.25,0.375 -2.5,0.75 -2.5,1.625 -1.75,2.125 -0.625,1.5 -0.125,0.375 m 19.375,-1.375 -0.125,-0.625 -0.75,-1.125 -0.875,-0.75 -0.75,-0.625 -1,-0.5 -2.5,-0.75 -1.625,-0.25 -1.875,0 -2.25,0.375 -2.5,0.875 -2.5,1.5 -1.875,2.125 -0.625,1.5 0,0.5 m 19.375,-1.5 -0.125,-0.5 -0.75,-1.125 -0.875,-0.875 -0.75,-0.625 -1,-0.5 -2.5,-0.75 -1.625,-0.25 -1.875,0.125 -2.25,0.25 -2.5,0.875 -2.5,1.5 -1.875,2.25 -0.625,1.375 0,0.5 m 19.375,-1.5 -0.25,-0.5 -0.75,-1.125 -0.75,-0.875 -0.875,-0.5 -0.875,-0.5 -2.625,-0.875 -1.5,-0.125 -2,0 -2.25,0.25 -2.5,0.875 -2.5,1.5 -1.75,2.25 -0.625,1.5 -0.125,0.375 m 19.375,-1.5 -0.125,-0.5 -0.75,-1.125 -0.875,-0.75 -0.75,-0.625 -1,-0.5 -2.5,-0.75 -1.625,-0.25 -1.875,0 -2.25,0.375 -2.5,0.75 -2.5,1.625 -1.875,2.125 -0.625,1.5 0,0.375 m 19.375,-1.375 -0.125,-0.625 -0.75,-1.125 -0.875,-0.75 -0.75,-0.625 -1,-0.5 -2.5,-0.75 -1.625,-0.25 -1.875,0 -2.25,0.375 -2.5,0.875 -2.5,1.5 -1.875,2.125 -0.625,1.5 0,0.5 m 19.375,-1.5 -0.25,-0.5 -0.75,-1.125 -0.75,-0.875 -0.875,-0.5 -0.875,-0.625 -2.625,-0.75 -1.5,-0.25 -2,0.125 -2.25,0.25 -2.5,0.875 -2.5,1.5 -1.75,2.25 -0.625,1.375 -0.125,0.5 m 19.375,-1.5 -0.125,-0.5 -0.75,-1.125 -0.875,-0.875 -0.75,-0.5 -1,-0.5 -2.5,-0.875 -1.625,-0.125 -1.875,0 -2.25,0.25 -2.5,0.875 -2.5,1.625 -1.875,2.125 -0.625,1.5 0,0.375 m 19.375,-1.375 -0.125,-0.625 -0.75,-1.125 -0.875,-0.75 -0.75,-0.625 -1,-0.5 -2.5,-0.75 -1.625,-0.25 -1.875,0 -2.25,0.375 -2.5,0.875 -2.5,1.5 -1.875,2.125 -0.625,1.5 0,0.5 m 19.375,-1.5 -0.25,-0.5 -0.625,-1.25 -0.875,-0.75 -0.875,-0.625 -0.875,-0.5 -2.625,-0.75 -1.5,-0.25 -2,0 -2.25,0.375 -2.5,0.875 -2.5,1.5 -1.75,2.125 -0.625,1.5 -0.125,0.5 m 19.375,-1.5 -0.125,-0.5 -0.75,-1.125 -0.875,-0.875 -0.75,-0.5 -1,-0.5 -2.5,-0.875 -1.625,-0.125 -1.875,0 -2.25,0.25 -2.5,0.875 -2.5,1.5 -1.875,2.25 -0.625,1.5 0,0.375 m 19.375,-1.5 -0.125,-0.5 -0.75,-1.125 -0.875,-0.875 -0.75,-0.5 -1,-0.5 -2.5,-0.875 -1.625,-0.125 -1.875,0 -2.25,0.375 -2.5,0.75 -2.5,1.625 -1.875,2.125 -0.625,1.5 0,0.375 m 19.375,-1.375 -0.25,-0.625 -0.625,-1.125 -0.875,-0.75 -0.875,-0.625 -0.875,-0.5 -2.625,-0.75 -1.5,-0.25 -2,0 -2.25,0.375 -2.5,0.875 -2.5,1.5 -1.75,2.125 -0.625,1.5 -0.125,0.5 m 19.375,-1.5 -0.125,-0.5 -0.75,-1.125 -0.875,-0.875 -0.75,-0.625 -1,-0.5 -2.5,-0.75 -1.625,-0.25 -1.875,0 -2.25,0.375 -2.5,0.875 -2.5,1.5 -1.875,2.125 -0.625,1.5 0,0.5 m 19.375,-1.5 -0.125,-0.5 -0.75,-1.125 -0.875,-0.875 -0.75,-0.5 -1,-0.5 -2.5,-0.875 -1.625,-0.125 -1.875,0 -2.25,0.25 -2.5,0.875 -2.5,1.5 -1.875,2.25 -0.625,1.5 0,0.375 m 19.375,-1.5 -0.125,-0.5 -0.75,-1.125 -0.875,-0.75 -0.875,-0.625 -0.875,-0.5 -2.625,-0.875 -1.5,-0.125 -2,0 -2.25,0.375 -2.5,0.75 -2.5,1.625 -1.75,2.125 -0.625,1.5 -0.125,0.375 m 19.375,-1.375 -0.125,-0.625 -0.75,-1.125 -0.875,-0.75 -0.75,-0.625 -1,-0.5 -2.5,-0.75 -1.625,-0.25 -1.875,0 -2.25,0.375 -2.5,0.875 -2.5,1.5 -1.875,2.125 -0.625,1.5 0,0.5 m 19.375,-1.5 -0.125,-0.5 -0.75,-1.125 -0.875,-0.875 -0.75,-0.625 -1,-0.5 -2.5,-0.75 -1.625,-0.25 -1.875,0 -2.25,0.375 -2.5,0.875 -2.5,1.5 -1.875,2.125 -0.625,1.5 0,0.5 m 19.375,-1.5 -0.125,-0.5 -0.75,-1.125 -0.875,-0.875 -0.875,-0.5 -0.875,-0.5 -2.625,-0.875 -1.5,-0.125 -2,0 -2.25,0.25 -2.5,0.875 -2.5,1.5 -1.75,2.25 -0.625,1.5 -0.125,0.375 m 19.5,-1.5 -0.25,-0.5 -0.75,-1.125 -0.875,-0.75 -0.75,-0.625 -1,-0.5 -2.5,-0.75 -1.625,-0.25 -1.875,0 -2.25,0.375 -2.5,0.75 -2.5,1.625 -1.875,2.125 -0.625,1.5 0,0.375 m 19.375,-1.375 -0.125,-0.625 -0.75,-1.125 -0.875,-0.75 -0.75,-0.625 -1,-0.5 -2.5,-0.75 -1.625,-0.25 -1.875,0 -2.25,0.375 -2.5,0.875 -2.5,1.5 -1.875,2.125 -0.625,1.5 0,0.5 m 19.375,-1.5 -0.125,-0.5 -0.75,-1.125 -0.875,-0.875 -0.875,-0.625 -0.875,-0.5 -2.625,-0.75 -1.5,-0.25 -2,0 -2.25,0.375 -2.5,0.875 -2.5,1.5 -1.75,2.25 -0.625,1.375 -0.125,0.5 m 19.5,-1.5 -0.25,-0.5 -0.75,-1.125 -0.875,-0.875 -0.75,-0.5 -1,-0.5 -2.5,-0.875 -1.625,-0.125 -1.875,0 -2.25,0.25 -2.5,0.875 -2.5,1.5 -1.875,2.25 -0.625,1.5 0,0.375 m 19.375,-1.5 -0.125,-0.5 -0.75,-1.125 -0.875,-0.75 -0.75,-0.625 -1,-0.5 -2.5,-0.75 -1.625,-0.25 -1.875,0 -2.25,0.375 -2.5,0.75 -2.5,1.625 -1.875,2.125 -0.625,1.5 0,0.375 m 19.375,-1.375 -0.125,-0.625 -0.75,-1.125 -0.875,-0.75 -0.875,-0.625 -0.875,-0.5 -2.625,-0.75 -1.5,-0.25 -2,0 -2.125,0.375 -2.625,0.875 -2.5,1.5 -1.75,2.125 -0.625,1.5 -0.125,0.5 m 19.5,-1.5 -0.25,-0.5 -0.75,-1.125 -0.875,-0.875 -0.75,-0.5 -1,-0.625 -2.5,-0.75 -1.625,-0.25 -1.875,0.125 -2.25,0.25 -2.5,0.875 -2.5,1.5 -1.875,2.25 -0.5,1.375 -0.125,0.5 m 19.375,-1.5 -0.125,-0.5 -0.75,-1.125 -0.875,-0.875 -0.75,-0.5 -1,-0.5 -2.5,-0.875 -1.625,-0.125 -1.875,0 -2.25,0.25 -2.5,0.875 -2.5,1.625 -1.875,2.125 -0.625,1.5 0,0.375 m 19.375,-1.5 -0.125,-0.5 -0.75,-1.125 -0.875,-0.75 -0.875,-0.625 -0.875,-0.5 -2.625,-0.75 -1.5,-0.25 -2,0 -2.125,0.375 -2.625,0.875 -2.5,1.5 -1.75,2.125 -0.625,1.5 -0.125,0.5 m 19.5,-1.5 -0.25,-0.625 -0.75,-1.125 -0.875,-0.75 -0.75,-0.625 -1,-0.5 -2.5,-0.75 -1.625,-0.25 -1.875,0 -2.25,0.375 -2.5,0.875 -2.5,1.5 -1.875,2.125 -0.5,1.5 -0.125,0.5 m 19.375,-1.5 -0.125,-0.5 -0.75,-1.125 -0.875,-0.875 -0.75,-0.5 -1,-0.5 -2.5,-0.875 -1.625,-0.125 -1.875,0 -2.25,0.25 -2.5,0.875 -2.5,1.5 -1.875,2.25 -0.625,1.5 0,0.375 m 19.375,-1.5 -0.125,-0.5 -0.75,-1.125 -0.875,-0.875 -0.875,-0.5 -0.875,-0.5 -2.625,-0.875 -1.5,-0.125 -2,0 -2.125,0.375 -2.625,0.75 -2.5,1.625 -1.75,2.125 -0.625,1.5 -0.125,0.375 m 19.5,-1.375 -0.25,-0.625 -0.75,-1.125 -0.875,-0.75 -0.75,-0.625 -1,-0.5 -2.5,-0.75 -1.625,-0.25 -1.875,0 -2.25,0.375 -2.5,0.875 -2.5,1.5 -1.875,2.125 -0.5,1.5 -0.125,0.5 m 19.375,-1.5 -0.125,-0.5 -0.75,-1.125 -0.875,-0.875 -0.75,-0.625 -1,-0.5 -2.5,-0.75 -1.625,-0.25 -1.875,0 -2.25,0.375 -2.5,0.875 -2.5,1.5 -1.875,2.125 -0.625,1.5 0,0.5 m 19.375,-1.5 -0.125,-0.5 -0.75,-1.125 -0.875,-0.875 -0.875,-0.5 -0.875,-0.5 -2.625,-0.875 -1.5,-0.125 -2,0 -2.125,0.25 -2.625,0.875 -2.5,1.5 -1.75,2.25 -0.625,1.5 -0.125,0.375 m 19.5,-1.5 -0.25,-0.5 -0.75,-1.125 -0.875,-0.75 -0.75,-0.625 -1,-0.5 -2.5,-0.875 -1.625,-0.125 -1.875,0 -2.25,0.375 -2.5,0.75 -2.5,1.625 -1.875,2.125 -0.5,1.5 -0.125,0.375 m 19.375,-1.375 -0.125,-0.625 -0.75,-1.125 -0.875,-0.75 -0.75,-0.625 -1,-0.5 -2.5,-0.75 -1.625,-0.25 -1.875,0 -2.25,0.375 -2.5,0.875 -2.5,1.5 -1.875,2.125 -0.625,1.5 0,0.5 m 19.375,-1.5 -0.125,-0.5 -0.75,-1.125 -0.875,-0.875 -0.875,-0.625 -0.875,-0.5 -2.625,-0.75 -1.5,-0.25 -2,0 -2.125,0.375 -2.625,0.875 -2.5,1.5 -1.75,2.125 -0.625,1.5 -0.125,0.5 m 19.5,-1.5 -0.25,-0.5 -0.75,-1.125 -0.75,-0.875 -0.875,-0.5 -1,-0.5 -2.5,-0.875 -1.625,-0.125 -1.875,0 -2.25,0.25 -2.5,0.875 -2.5,1.5 -1.875,2.25 -0.5,1.5 -0.125,0.375 m 19.375,-1.5 -0.125,-0.5 -0.75,-1.125 -0.875,-0.75 -0.75,-0.625 -1,-0.5 -2.5,-0.875 -1.625,-0.125 -1.875,0 -2.25,0.375 -2.5,0.75 -2.5,1.625 -1.875,2.125 -0.625,1.5 0,0.375 m 19.375,-1.375 -0.125,-0.625 -0.75,-1.125 -0.875,-0.75 -0.875,-0.625 -0.875,-0.5 -2.625,-0.75 -1.5,-0.25 -2,0 -2.125,0.375 -2.625,0.875 -2.5,1.5 -1.75,2.125 -0.625,1.5 0,0.5 m 19.25,-1.625 -0.125,-0.375 -0.75,-1.125 -0.75,-0.875 -0.875,-0.625 -1,-0.5 -2.5,-0.75 -1.625,-0.25 -1.875,0 -2.25,0.375 -2.5,0.875 -2.5,1.5 -1.875,2.25 -0.5,1.375 -0.125,0.5 m 19.375,-1.5 -0.125,-0.5 -0.75,-1.125 -0.875,-0.875 -0.75,-0.5 -1,-0.5 -2.5,-0.875 -1.625,-0.125 -1.875,0 -2.25,0.25 -2.5,0.875 -2.5,1.5 -1.875,2.25 -0.625,1.5 -0.125,1.375 0.25,1.25 0.375,1 0.75,1 m 17.625,-1.5 0.375,-0.75 0.375,-1.125 0,-1.375 -0.375,-1.5 -0.75,-1.125 -0.875,-0.75 -0.875,-0.625 -0.875,-0.5 -2.625,-0.75 -1.5,-0.25 -2,0 -2.125,0.375 -2.625,0.75 -2.5,1.625 -1.75,2.125 m -5.875,-54.75 -0.625,1.5 0,0.375 m 19.25,-1.625 -0.125,-0.375 -0.75,-1.125 -0.75,-0.75 -0.875,-0.625 -0.875,-0.5 -2.625,-0.875 -1.5,-0.125 -2,0 -2.25,0.375 -2.5,0.75 -2.5,1.625 -1.875,2.125 m -108.625,-54.5 1.125,-2.625 0.875,-2.875 0.375,-2.625 0.25,-2.125 0,-1.75 -0.125,-1.25 -0.375,-2 -0.75,-1.125 -0.5,-0.375 -0.625,-0.25 -0.25,0 m -4.5,19.125 0.375,0.25 0.75,-0.125 0.75,-0.375 0.75,-0.875 0.875,-1.25 m 2,0.5 1.125,-2.625 0.75,-3 0.5,-2.5 0.25,-2.125 0,-1.75 -0.125,-1.375 -0.375,-1.875 -0.75,-1.125 -0.5,-0.5 -0.625,-0.125 -0.25,0 m -4.5,19 0.375,0.25 0.625,0 0.875,-0.375 0.75,-0.875 0.875,-1.25 m 2,0.375 1.125,-2.625 0.75,-2.875 0.5,-2.625 0.25,-2.125 0,-1.625 -0.125,-1.375 -0.375,-2 -0.75,-1.125 -0.5,-0.375 -0.625,-0.125 -0.25,0 m -4.625,19 0.5,0.25 0.625,0 0.75,-0.5 0.875,-0.75 0.875,-1.25 m 1.875,0.375 1.25,-2.625 0.75,-2.875 0.5,-2.625 0.25,-2.125 0,-1.75 -0.125,-1.25 -0.5,-2 -0.625,-1.125 -0.5,-0.375 -0.625,-0.25 -0.25,0 m -4.625,19.125 0.5,0.25 0.625,-0.125 0.75,-0.375 0.875,-0.875 0.875,-1.25 m 1.875,0.5 1.125,-2.625 0.875,-3 0.5,-2.5 0.25,-2.125 0,-1.75 -0.125,-1.375 -0.5,-1.875 -0.625,-1.125 -0.5,-0.5 -0.625,-0.125 -0.25,0 m -4.625,19 0.5,0.25 0.625,0 0.75,-0.375 0.875,-0.875 0.75,-1.25 m 2,0.375 1.125,-2.625 0.875,-2.875 0.5,-2.625 0.125,-2.125 0.125,-1.625 -0.125,-1.375 -0.5,-2 -0.625,-1.125 -0.5,-0.375 -0.625,-0.125 -0.375,0 m -4.5,19 0.5,0.25 0.625,0 0.75,-0.5 0.875,-0.75 0.75,-1.25 m 2,0.375 1.125,-2.625 0.875,-2.875 0.5,-2.625 0.125,-2.125 0,-1.75 0,-1.25 -0.5,-2 -0.625,-1.125 -0.5,-0.375 -0.625,-0.25 -0.375,0.125 m -4.5,19 0.5,0.25 0.625,-0.125 0.75,-0.375 0.875,-0.875 0.75,-1.25 m 2,0.5 1.125,-2.625 0.875,-3 0.375,-2.5 0.25,-2.125 0,-1.75 -0.125,-1.375 -0.375,-1.875 -0.75,-1.125 -0.375,-0.375 -0.625,-0.25 -0.375,0 m -4.5,19 0.375,0.25 0.75,0 0.75,-0.375 0.75,-0.875 0.875,-1.25 m 2,0.375 1.125,-2.625 0.875,-2.875 0.375,-2.625 0.25,-2.125 0,-1.625 -0.125,-1.375 -0.375,-2 -0.75,-1.125 -0.5,-0.375 -0.625,-0.125 -0.25,0 m -4.5,19 0.375,0.25 0.625,0 0.875,-0.375 0.75,-0.875 0.875,-1.25 m 2,0.375 1.125,-2.625 0.75,-2.875 0.5,-2.625 0.25,-2.125 0,-1.75 -0.125,-1.25 -0.375,-2 -0.75,-1.125 -0.5,-0.375 -0.625,-0.25 -0.25,0.125 m -4.625,19 0.5,0.25 0.625,-0.125 0.75,-0.375 0.875,-0.875 0.875,-1.25 m 2,0.5 1.125,-2.625 0.75,-3 0.5,-2.5 0.25,-2.125 0,-1.75 -0.125,-1.375 -0.5,-1.875 -0.625,-1.125 -0.5,-0.375 -0.625,-0.25 -0.25,0 m -4.625,19 0.5,0.25 0.625,0 0.75,-0.375 0.875,-0.875 0.875,-1.25 m 1.875,0.375 1.25,-2.625 0.75,-2.875 0.5,-2.625 0.25,-2.125 0,-1.625 -0.125,-1.375 -0.5,-2 -0.625,-1.125 -0.5,-0.375 -0.625,-0.125 -0.25,0 m -4.625,19 0.5,0.25 0.625,0 0.75,-0.375 0.875,-0.875 0.875,-1.25 m 1.875,0.375 1.125,-2.625 0.875,-2.875 0.5,-2.625 0.125,-2.125 0.125,-1.75 -0.125,-1.25 -0.5,-2 -0.625,-1.125 -0.5,-0.375 -0.625,-0.25 -0.25,0.125 m -4.625,19 0.5,0.25 0.625,-0.125 0.75,-0.375 0.875,-0.75 0.75,-1.375 m 2,0.5 1.125,-2.625 0.875,-2.875 0.5,-2.625 0.125,-2.125 0,-1.75 0,-1.375 -0.5,-1.875 -0.625,-1.125 -0.5,-0.375 -0.625,-0.25 -0.375,0 m -4.5,19 0.5,0.25 0.625,0 0.75,-0.375 0.875,-0.875 0.75,-1.25 m 2,0.375 1.125,-2.625 0.875,-2.875 0.5,-2.625 0.125,-2.125 0,-1.625 0,-1.375 -0.5,-2 -0.625,-1.125 -0.5,-0.375 -0.625,-0.125 -0.375,0 m -4.5,19 0.5,0.25 0.625,0 0.75,-0.375 0.75,-0.875 0.875,-1.25 m 2,0.375 1.125,-2.625 0.875,-2.875 0.375,-2.625 0.25,-2.125 0,-1.75 -0.125,-1.25 -0.375,-2 -0.75,-1.125 -0.375,-0.375 -0.75,-0.25 -0.25,0.125 m -4.5,19 0.375,0.25 0.75,-0.125 0.75,-0.375 0.75,-0.75 0.875,-1.375 m 2,0.5 1.125,-2.625 0.875,-2.875 0.375,-2.625 0.25,-2.125 0,-1.75 -0.125,-1.375 -0.375,-1.875 -0.75,-1.125 -0.5,-0.375 -0.625,-0.25 -0.25,0 m -4.5,19.125 0.375,0.25 0.625,-0.125 0.875,-0.375 0.75,-0.875 0.875,-1.25 m 2,0.375 1.125,-2.625 0.75,-2.875 0.5,-2.625 0.25,-2.125 0,-1.625 -0.125,-1.375 -0.375,-2 -0.75,-1.125 -0.5,-0.375 -0.625,-0.125 -0.25,0 m -4.625,19 0.5,0.25 0.625,0 0.75,-0.375 0.875,-0.875 0.875,-1.25 m 1.875,0.375 1.25,-2.625 0.75,-2.875 0.5,-2.625 0.25,-2.125 0,-1.75 -0.125,-1.25 -0.5,-2 -0.625,-1.125 -0.5,-0.375 -0.625,-0.25 -0.25,0.125 m -4.625,19 0.5,0.25 0.625,-0.125 0.75,-0.375 0.875,-0.75 0.875,-1.375 m 1.875,0.5 1.125,-2.625 0.875,-2.875 0.5,-2.625 0.25,-2.125 0,-1.75 -0.125,-1.375 -0.5,-1.875 -0.625,-1.125 -0.5,-0.375 -0.625,-0.25 -0.25,0 m -4.625,19.125 0.5,0.25 0.625,-0.125 0.75,-0.375 0.875,-0.875 0.75,-1.25 m 2,0.375 1.125,-2.625 0.875,-2.875 0.5,-2.625 0.125,-2.125 0.125,-1.625 -0.125,-1.375 -0.5,-2 -0.625,-1.125 -0.5,-0.375 -0.625,-0.125 -0.375,0 m -4.5,19 0.5,0.25 0.625,0 0.75,-0.375 0.875,-0.875 0.75,-1.25 m 2,0.375 1.125,-2.625 0.875,-2.875 0.5,-2.625 0.125,-2.125 0,-1.75 0,-1.25 -0.5,-2 -0.625,-1.125 -0.5,-0.375 -0.625,-0.25 -0.375,0.125 m -4.5,19 0.5,0.25 0.625,-0.125 0.75,-0.375 0.875,-0.75 0.75,-1.375 m 2,0.5 1.125,-2.625 0.875,-2.875 0.5,-2.625 0.125,-2.125 0,-1.75 0,-1.375 -0.5,-1.875 -0.75,-1.125 -0.375,-0.375 -0.625,-0.25 -0.375,0 m -4.5,19.125 0.375,0.25 0.75,-0.125 0.75,-0.375 0.75,-0.875 0.875,-1.25 m 2,0.375 1.125,-2.625 0.875,-2.875 0.375,-2.625 0.25,-2.125 0,-1.625 -0.125,-1.375 -0.375,-1.875 -0.75,-1.25 -0.5,-0.375 -0.625,-0.125 -0.25,0 m -4.5,19 0.375,0.25 0.625,0 0.875,-0.375 0.75,-0.875 0.875,-1.25 m 2,0.375 1.125,-2.625 0.75,-2.875 0.5,-2.625 0.25,-2.125 0,-1.75 -0.125,-1.25 -0.375,-2 -0.75,-1.125 -0.5,-0.375 -0.625,-0.25 -0.25,0.125 m -4.625,19 0.5,0.25 0.625,0 0.75,-0.5 0.875,-0.75 0.875,-1.375 m 2,0.5 1.125,-2.625 0.75,-2.875 0.5,-2.625 0.25,-2.125 0,-1.75 -0.125,-1.25 -0.5,-2 -0.625,-1.125 -0.5,-0.375 -0.625,-0.25 -0.25,0 m -4.625,19.125 0.5,0.25 0.625,-0.125 0.75,-0.375 0.875,-0.875 0.875,-1.25 m 1.875,0.375 1.25,-2.625 0.75,-2.875 0.5,-2.625 0.25,-2.125 0,-1.625 -0.125,-1.375 -0.5,-1.875 -0.625,-1.25 -0.5,-0.375 -0.625,-0.125 -0.25,0 m -4.625,19 0.5,0.25 0.625,0 0.75,-0.375 0.875,-0.875 0.875,-1.25 m 1.875,0.375 1.125,-2.625 0.875,-2.875 0.5,-2.625 0.125,-2.125 0.125,-1.625 -0.125,-1.375 -0.5,-2 -0.625,-1.125 -0.5,-0.375 -0.625,-0.25 -0.25,0.125 m -4.625,19 0.5,0.25 0.625,0 0.75,-0.5 0.875,-0.75 0.75,-1.375 m 2,0.5 1.125,-2.625 0.875,-2.875 0.5,-2.625 0.125,-2.125 0.125,-1.75 -0.125,-1.25 -0.5,-2 -0.625,-1.125 -0.5,-0.375 -0.625,-0.25 -0.375,0 m -4.5,19.125 0.5,0.25 0.625,-0.125 0.75,-0.375 0.875,-0.875 0.75,-1.25 m 2,0.375 1.125,-2.625 0.875,-2.875 0.5,-2.625 0.125,-2.125 0,-1.625 0,-1.375 -0.5,-1.875 -0.625,-1.25 -0.5,-0.375 -0.625,-0.125 -0.375,0 m -4.5,19 0.5,0.25 0.625,0 0.75,-0.375 0.875,-0.875 0.75,-1.25 m 2,0.375 1.125,-2.625 0.875,-2.875 0.375,-2.625 0.25,-2.125 0,-1.625 -0.125,-1.375 -0.375,-2 -0.75,-1.125 -0.375,-0.375 -0.625,-0.25 -0.375,0.125 m -4.5,19 0.375,0.25 0.75,0 0.75,-0.5 0.75,-0.75 0.875,-1.375 m 2,0.5 1.125,-2.625 0.875,-2.875 0.375,-2.625 0.25,-2.125 0,-1.75 -0.125,-1.25 -0.375,-2 -0.75,-1.125 -0.5,-0.375 -0.625,-0.25 -0.25,0 m -4.5,19.125 0.375,0.25 0.625,-0.125 0.875,-0.375 0.75,-0.875 0.875,-1.25 m 2,0.375 1.125,-2.625 0.75,-2.875 0.5,-2.625 0.25,-2.125 0,-1.625 -0.125,-1.375 -0.375,-1.875 -0.75,-1.25 -0.5,-0.375 -0.625,-0.125 -0.25,0 m -4.625,19 0.5,0.25 0.625,0 0.75,-0.375 0.875,-0.875 0.875,-1.25 m 2,0.375 1.125,-2.625 0.75,-2.875 0.5,-2.625 0.25,-2.125 0,-1.625 -0.125,-1.375 -0.5,-2 -0.625,-1.125 -0.5,-0.375 -0.625,-0.25 -0.25,0.125 m -4.625,19 0.5,0.25 0.625,0 0.75,-0.5 0.875,-0.75 0.875,-1.375 m 1.875,0.5 1.25,-2.625 0.75,-2.875 0.5,-2.625 0.25,-2.125 0,-1.75 -0.125,-1.25 -0.5,-2 -0.625,-1.125 -0.5,-0.375 -0.625,-0.25 -0.25,0 m -4.625,19.125 0.5,0.25 0.625,-0.125 0.75,-0.375 0.875,-0.875 0.875,-1.25 m 1.875,0.5 1.125,-2.625 0.875,-3 0.5,-2.625 0.125,-2 0.125,-1.75 -0.125,-1.375 -0.5,-1.875 -0.625,-1.25 -0.5,-0.375 -0.625,-0.125 -0.375,0 m -4.5,19 0.5,0.25 0.625,0 0.75,-0.375 0.875,-0.875 0.75,-1.25 m 2,0.375 1.125,-2.625 0.875,-2.875 0.5,-2.625 0.125,-2.125 0,-1.625 0,-1.375 -0.5,-2 -0.625,-1.125 -0.5,-0.375 -0.625,-0.25 -0.375,0.125 m -4.5,19 0.5,0.25 0.625,0 0.75,-0.5 0.875,-0.75 0.75,-1.25 m 2,0.375 1.125,-2.625 0.875,-2.875 0.5,-2.625 0.125,-2.125 0,-1.75 0,-1.25 -0.5,-2 -0.625,-1.125 -0.5,-0.375 -0.625,-0.25 -0.375,0 m -4.5,19.125 0.5,0.25 0.625,-0.125 0.75,-0.375 0.75,-0.875 0.875,-1.25 m 2,0.5 1.125,-2.625 0.875,-3 0.375,-2.625 0.25,-2 0,-1.75 -0.125,-1.375 -0.375,-1.875 -0.75,-1.25 -0.375,-0.375 -0.75,-0.125 -0.25,0 m -4.5,19 0.375,0.25 0.75,0 0.75,-0.375 0.75,-0.875 0.875,-1.25 m 2,0.375 1.125,-2.625 0.75,-2.875 0.5,-2.625 0.25,-2.125 0,-1.625 -0.125,-1.375 -0.375,-2 -0.75,-1.125 -0.5,-0.375 -0.625,-0.125 -0.25,0 m -4.5,19 0.375,0.25 0.625,0 0.875,-0.5 0.75,-0.75 0.875,-1.25 m 2,0.375 1.125,-2.625 0.75,-2.875 0.5,-2.625 0.25,-2.125 0,-1.75 -0.125,-1.25 -0.375,-2 -0.75,-1.125 -0.5,-0.375 -0.625,-0.25 -0.25,0 m -4.625,19.125 0.5,0.25 0.625,-0.125 0.75,-0.375 0.875,-0.875 0.875,-1.25 m 1.875,0.5 1.25,-2.625 0.75,-3 0.5,-2.625 0.25,-2 0,-1.75 -0.125,-1.375 -0.5,-1.875 -0.625,-1.125 -0.5,-0.5 -0.625,-0.125 -0.25,0 m -4.625,19 0.5,0.25 0.625,0 0.75,-0.375 0.875,-0.875 0.875,-1.25 m 1.875,0.375 1.125,-2.625 0.875,-2.875 0.5,-2.625 0.25,-2.125 0,-1.625 -0.125,-1.375 -0.5,-2 -0.625,-1.125 -0.5,-0.375 -0.625,-0.125 -0.25,0 m -4.625,19 0.5,0.25 0.625,0 0.75,-0.5 0.875,-0.75 0.75,-1.25 m 2,0.375 1.125,-2.625 0.875,-2.875 0.5,-2.625 0.125,-2.125 0.125,-1.75 -0.125,-1.25 -0.5,-2 -0.625,-1.125 -0.5,-0.375 -0.625,-0.25 -0.375,0 m -4.5,19.125 0.5,0.25 0.625,-0.125 0.75,-0.375 0.875,-0.875 0.75,-1.25 m 2,0.5 1.125,-2.625 0.875,-3 0.5,-2.5 0.125,-2.125 0,-1.75 0,-1.375 -0.5,-1.875 -0.625,-1.125 -0.5,-0.5 -0.625,-0.125 -0.375,0 m -4.5,19 0.5,0.25 0.625,0 0.75,-0.375 0.875,-0.875 0.75,-1.25 m 2,0.375 1.125,-2.625 0.875,-2.875 0.5,-2.625 0.125,-2.125 0,-1.625 -0.125,-1.375 -0.375,-2 -0.75,-1.125 -0.375,-0.375 -0.625,-0.125 -0.375,0 m -4.5,19 0.375,0.25 0.75,0 0.75,-0.5 0.75,-0.75 0.875,-1.25 m 2,0.375 1.125,-2.625 0.875,-2.875 0.375,-2.625 0.25,-2.125 0,-1.75 -0.125,-1.25 -0.375,-2 -0.75,-1.125 -0.5,-0.375 -0.625,-0.25 -0.25,0.125 m -4.5,19 0.375,0.25 0.625,-0.125 0.875,-0.375 0.75,-0.875 0.875,-1.25 m 2,0.5 1.125,-2.625 0.75,-3 0.5,-2.5 0.25,-2.125 0,-1.75 -0.125,-1.375 -0.375,-1.875 -0.75,-1.125 -0.5,-0.5 -0.625,-0.125 -0.25,0 m -4.625,19 0.5,0.25 0.625,0 0.75,-0.375 0.875,-0.875 0.875,-1.25 m 2,0.375 1.125,-2.625 0.75,-2.875 0.5,-2.625 0.25,-2.125 0,-1.625 -0.125,-1.375 -0.5,-2 -0.625,-1.125 -0.5,-0.375 -0.625,-0.125 -0.25,0 m -4.625,19 0.5,0.25 0.625,0 0.75,-0.5 0.875,-0.75 0.875,-1.25 m 1.875,0.375 1.25,-2.625 0.75,-2.875 0.5,-2.625 0.25,-2.125 0,-1.75 -0.125,-1.25 -0.5,-2 -0.625,-1.125 -0.5,-0.375 -0.625,-0.25 -0.25,0.125 m -4.625,19 0.5,0.25 0.625,-0.125 0.75,-0.375 0.875,-0.875 0.875,-1.25 m 1.875,0.5 1.125,-2.625 0.875,-3 0.5,-2.5 0.125,-2.125 0.125,-1.75 -0.125,-1.375 -0.5,-1.875 -0.625,-1.125 -0.5,-0.375 -0.625,-0.25 -0.25,0 m -4.625,19 0.5,0.25 0.625,0 0.75,-0.375 0.875,-0.875 0.75,-1.25 m 2,0.375 1.125,-2.625 0.875,-2.875 0.5,-2.625 0.125,-2.125 0,-1.625 0,-1.375 -0.5,-2 -0.625,-1.125 -0.5,-0.375 -0.625,-0.125 -0.375,0 m -4.5,19 0.5,0.25 0.625,0 0.75,-0.375 0.875,-0.875 0.75,-1.25 m 2,0.375 1.125,-2.625 0.875,-2.875 0.5,-2.625 0.125,-2.125 0,-1.75 0,-1.25 -0.5,-2 -0.625,-1.125 -0.5,-0.375 -0.625,-0.25 -0.375,0.125 m -4.5,19 0.5,0.25 0.625,-0.125 0.75,-0.375 0.875,-0.75 0.75,-1.375 m 2,0.5 1.125,-2.625 0.875,-2.875 0.375,-2.625 0.25,-2.125 0,-1.75 -0.125,-1.375 -0.375,-1.875 -0.75,-1.125 -0.375,-0.375 -0.75,-0.25 -0.25,0 m -4.5,19 0.375,0.25 0.75,0 0.75,-0.375 0.75,-0.875 0.875,-1.25 m 2,0.375 1.125,-2.625 0.875,-2.875 0.375,-2.625 0.25,-2.125 0,-1.625 -0.125,-1.375 -0.375,-2 -0.75,-1.125 -0.5,-0.375 -0.625,-0.125 -0.25,0 m -4.5,19 0.375,0.25 0.625,0 0.875,-0.375 0.75,-0.875 0.875,-1.25 m 2,0.375 1.125,-2.625 0.75,-2.875 0.5,-2.625 0.25,-2.125 0,-1.75 -0.125,-1.25 -0.375,-2 -0.75,-1.125 -0.5,-0.375 -0.625,-0.25 -0.25,0.125 m -4.625,19 0.5,0.25 0.625,-0.125 0.75,-0.375 0.875,-0.75 0.875,-1.375 m 1.875,0.5 1.25,-2.625 0.75,-2.875 0.5,-2.625 0.25,-2.125 0,-1.75 -0.125,-1.375 -0.5,-1.875 -0.625,-1.125 -0.5,-0.375 -0.625,-0.25 -0.25,0 m -4.625,19.125 0.5,0.25 0.625,-0.125 0.75,-0.375 0.875,-0.875 0.875,-1.25 m 1.875,0.375 1.25,-2.625 0.75,-2.875 0.5,-2.625 0.25,-2.125 0,-1.625 -0.125,-1.375 -0.5,-2 -0.625,-1.125 -0.5,-0.375 -0.625,-0.125 -0.25,0 m -4.625,19 0.5,0.25 0.625,0 0.75,-0.375 0.875,-0.875 0.75,-1.25 m 2,0.375 1.125,-2.625 0.875,-2.875 0.5,-2.625 0.125,-2.125 0.125,-1.75 -0.125,-1.25 -0.5,-2 -0.625,-1.125 -0.5,-0.375 -0.625,-0.25 -0.375,0.125 m -4.5,19 0.5,0.25 0.625,-0.125 0.75,-0.375 0.875,-0.75 0.75,-1.375 m 2,0.5 1.125,-2.625 0.875,-2.875 0.5,-2.625 0.125,-2.125 0,-1.75 0,-1.375 -0.5,-1.875 -0.625,-1.125 -0.5,-0.375 -0.625,-0.25 -0.375,0 m -4.5,19.125 0.5,0.25 0.625,-0.125 0.75,-0.375 0.875,-0.875 0.75,-1.25 m 2,0.375 1.125,-2.625 0.875,-2.875 0.5,-2.625 0.125,-2.125 0,-1.625 0,-1.375 -0.5,-2 -0.75,-1.125 -0.375,-0.375 -0.625,-0.125 -0.375,0 m -4.5,19 0.5,0.25 0.625,0 0.75,-0.375 0.75,-0.875 0.875,-1.25 m 2,0.375 1.125,-2.625 0.875,-2.875 0.375,-2.625 0.25,-2.125 0,-1.75 -0.125,-1.25 -0.375,-2 -0.75,-1.125 -0.5,-0.375 -0.625,-0.25 -0.25,0.125 m -4.5,19 0.375,0.25 0.625,-0.125 0.875,-0.375 0.75,-0.75 0.875,-1.375 m 2,0.5 1.125,-2.625 0.75,-2.875 0.5,-2.625 0.25,-2.125 0,-1.75 -0.125,-1.375 -0.375,-1.875 -0.75,-1.125 -0.5,-0.375 -0.625,-0.25 -0.25,0 m -4.5,19.125 0.375,0.25 0.625,-0.125 0.75,-0.375 0.875,-0.875 0.875,-1.25 m 2,0.375 1.125,-2.625 0.75,-2.875 0.5,-2.625 0.25,-2.125 0,-1.625 -0.125,-1.375 -0.5,-2 -0.625,-1.125 -0.5,-0.375 -0.625,-0.125 -0.25,0 m -4.625,19 0.5,0.25 0.625,0 0.75,-0.375 0.875,-0.875 0.875,-1.25 m 1.875,0.375 1.25,-2.625 0.75,-2.875 0.5,-2.625 0.25,-2.125 0,-1.75 -0.125,-1.25 -0.5,-2 -0.625,-1.125 -0.5,-0.375 -0.625,-0.25 -0.25,0.125 m -4.625,19 0.5,0.25 0.625,-0.125 0.75,-0.375 0.875,-0.75 0.875,-1.375 m 1.875,0.5 1.125,-2.625 0.875,-2.875 0.5,-2.625 0.125,-2.125 0.125,-1.75 -0.125,-1.25 -0.5,-2 -0.625,-1.125 -0.5,-0.375 -0.625,-0.25 -0.25,0 m -4.625,19.125 0.5,0.25 0.625,-0.125 0.75,-0.375 0.875,-0.875 0.75,-1.25 m 2,0.375 1.125,-2.625 0.875,-2.875 0.5,-2.625 0.125,-2.125 0.125,-1.625 -0.125,-1.375 -0.5,-1.875 -0.625,-1.25 -0.5,-0.375 -0.625,-0.125 -0.375,0 m -4.5,19 0.5,0.25 0.625,0 0.75,-0.375 0.875,-0.875 0.75,-1.25 m 2,0.375 1.125,-2.625 0.875,-2.875 0.5,-2.625 0.125,-2.125 0,-1.75 0,-1.25 -0.5,-2 -0.625,-1.125 -0.5,-0.375 -0.625,-0.25 -0.375,0.125 m -4.5,19 0.5,0.25 0.625,0 0.75,-0.5 0.875,-0.75 0.75,-1.375 m 2,0.5 1.125,-2.625 0.875,-2.875 0.375,-2.625 0.25,-2.125 0,-1.75 -0.125,-1.25 -0.375,-2 -0.75,-1.125 -0.375,-0.375 -0.625,-0.25 -0.375,0 m -4.5,19.125 0.375,0.25 0.75,-0.125 0.75,-0.375 0.75,-0.875 0.875,-1.25 m -67.75,-14.75 -0.125,0.125 m -0.875,-0.25 -1.125,1.5 -0.375,0.375 m 3.75,-17 0.25,0.125 0.625,1 0.25,1.125 0.125,1.75 -0.125,2.25 -0.375,2.875 -0.875,3.25 -0.5,1.5 -0.625,1.375 m 0.875,0.5 1.125,-2.625 0.875,-2.875 0.5,-2.625 0.125,-2.125 0,-1.625 0,-1.375 -0.5,-2 -0.625,-1.125 -0.5,-0.375 -0.625,-0.125 -0.75,0 -0.875,0.5 -0.25,0.25 m -3.875,17.25 0,0.25 0.5,0.5 0.875,0.5 0.625,0 0.75,-0.5 0.75,-0.75 0.875,-1.25 m 107.625,25.875 3,28.25 m 6.125,57.125 4.75,45 m 17.625,-1.875 -4.75,-44.875 m -6.125,-56.75 -3,-28.75 m 1.625,-8.25 12.5,-21.75 m 28.375,-49.375 24.875,-43.5 m -15.375,-8.75 -24.25,42.375 m -28.75,50 -12.75,22.25 m -3,0.125 -37.625,-8 m -69.5,-14.75 -56.875,-12.125 m -3.625,17.375 56,11.875 m 69.5,14.75 38.375,8.25 m 29.375,-30.625 0,0 0,0.25 -0.125,0.125 0,0.125 -0.125,0.125 -0.125,0 0,-0.125 0,-0.125 0,-0.25 0,-0.125 0.125,-0.25 m 27.625,-47.375 0.125,-0.125 0,-0.25 0.125,-0.125 0,-0.25 -0.125,-0.125 m -0.25,1 0.125,0 0,-0.125 m -45,162.625 0,0 -0.125,0.125 0.125,0.25 0.125,0.125 0.125,0.125 0.25,0 0.125,0 0.125,0 0.125,-0.125 m -6.75,-55.125 0,-0.125 0,-0.125 0.25,0 0.125,0 0.25,0 0.125,0.125 m -0.5,0.5 -0.125,-0.125 -0.125,-0.125 0,-0.125 m -42.75,-40 0.125,0.125 0.125,0.125 0.125,0.125 0.25,0.125 0.125,0 0.125,0 0.125,-0.125 m -69.25,-14.5 -0.25,-0.125 -0.125,-0.125 -0.125,-0.125 0,-0.125 0,-0.125 0,-0.125 0.125,-0.125 m 0.5,0.125 0.125,0.125 0.125,0.125 0,0.125 0,0.25 -0.125,0 -0.125,0.125 -0.125,0 m 108.625,23 -0.5,1.25 -0.25,1.125 0.125,0.375 m 17.625,-1.875 -0.125,-0.375 -0.375,-1.125 -0.75,-1.125 -1,-0.875 -1.375,-0.75 -1.5,-0.5 -1.75,-0.25 -1.75,-0.125 -1.75,0.25 -1.75,0.375 -1.625,0.625 -1.375,0.875 -1.125,1 -0.75,1.125 m 30.25,134 0.5,-1.25 0.125,-1.125 -0.25,-1.25 -0.5,-1.125 -1,-1 -1.125,-0.75 -1.5,-0.625 -1.625,-0.5 -1.625,-0.125 -1.875,0 -1.75,0.375 -1.625,0.5 -1.5,0.75 -1.25,1 -1,1 -0.625,1.25 -0.375,1.125 0,1.25 0.5,1.125 0.75,1.125 1,0.875 1.375,0.75 1.5,0.5 1.625,0.25 1.875,0.125 1.75,-0.25 1.75,-0.375 1.5,-0.75 1.375,-0.75 1.125,-1 0.875,-1.125 m 38.25,-262.125 0.375,1.375 0.625,1.375 0.875,1.25 1.25,1.25 1.375,1.125 1.5,0.875 1.625,0.625 1.75,0.5 1.625,0.125 1.5,-0.125 1.25,-0.375 1.125,-0.75 0.875,-0.875 0.5,-1 0.125,-1.25 -0.125,-1.375 -0.375,-1.25 -0.875,-1.375 -1,-1.375 -1.375,-1.125 -1.375,-1 -1.625,-0.75 -1.75,-0.625 -1.625,-0.25 -1.5,0 -1.5,0.25 -1.25,0.5 -0.875,0.875 -0.75,0.875 -0.375,1.25 0,1.25 m -65.25,112 -0.25,0.75 -0.25,1.25 0.125,1.375 0.5,1.375 0.75,1.25 1.125,1.375 1.25,1.125 1.5,1 1.625,0.75 1.625,0.625 1.625,0.25 1.625,0 1.375,-0.25 1.25,-0.5 1,-0.875 0.5,-0.75 m -183.5,-28.375 0.625,-1.25 0.625,-1.5 0.5,-1.625 0.375,-1.75 0.375,-1.75 0.125,-1.75 0,-1.5 -0.125,-1.375 -0.25,-1.125 -0.25,-0.875 -0.5,-0.5 -0.625,-0.125 -0.625,0.125 -0.625,0.625 -0.75,0.875 -0.625,1.125 -0.625,1.375 -0.5,1.625 -0.5,1.625 -0.375,1.875 -0.25,1.625 0,1.75 0,1.375 0.125,1.25 0.375,1 0.375,0.75 0.5,0.25 0.625,0 0.625,-0.375 0.75,-0.625 0.625,-1.125 m 161.375,37.125 0.25,0 0.625,-0.25 0.625,-0.5 0.75,-0.875 0.625,-1.125 0.625,-1.5 0.5,-1.5 0.5,-1.75 0.375,-1.75 0.25,-1.75 0.125,-1.625 -0.125,-1.5 -0.125,-1.25 -0.25,-1 -0.5,-0.625 -0.5,-0.375 m 2.5,9.5 -7.25,12.625 m 7.25,-12.625 18,3.875 m 0,0 -3.5,6.125 m -21.75,2.625 4.25,0.875 m 1.5,-27.875 1.5,14.375 m 2.75,-13.375 -4.25,-1 m 19.5,18.25 -0.75,-7 m -18.75,-11.25 -2.625,4.5 m -3.625,17.375 0.5,5.125"
         style="fill:none;stroke:#000000;stroke-width:0.69999999;stroke-linecap:round;stroke-linejoin:round;stroke-miterlimit:4;stroke-opacity:1;stroke-dasharray:none"
         id="path4216" />
      <path
         sodipodi:nodetypes="cc"
         inkscape:connector-curvature="0"
         id="path4242"
         d="m 362.08837,540.87847 1.94065,18.35872"
         style="fill:none;stroke:#000000;stroke-width:1px;stroke-linecap:butt;stroke-linejoin:miter;stroke-opacity:1;marker-end:url(#Arrow2Mend)" />
      <path
         sodipodi:nodetypes="cc"
         inkscape:connector-curvature="0"
         id="path4244"
         d="m 364.87373,528.47693 8.34056,-14.68618"
         style="fill:none;stroke:#000000;stroke-width:1px;stroke-linecap:butt;stroke-linejoin:miter;stroke-opacity:1;marker-end:url(#Arrow2Mend)" />
      <path
         sodipodi:nodetypes="cc"
         inkscape:connector-curvature="0"
         id="path4246"
         d="m 352.43393,532.48256 -19.64286,-4.15178"
         style="fill:none;stroke:#000000;stroke-width:1px;stroke-linecap:butt;stroke-linejoin:miter;stroke-opacity:1;marker-end:url(#Arrow2Mend)" />
      <text
         sodipodi:linespacing="125%"
         id="text5438"
         y="508.43362"
         x="222.14287"
         style="font-size:25px;font-style:normal;font-weight:normal;line-height:125%;letter-spacing:0px;word-spacing:0px;fill:#000000;fill-opacity:1;stroke:none;font-family:Times New Roman;-inkscape-font-specification:Times New Roman"
         xml:space="preserve"><tspan
           style="font-size:15px;font-style:italic"
           y="508.43362"
           x="222.14287"
           id="tspan5440"
           sodipodi:role="line">x</tspan></text>
      <text
         sodipodi:linespacing="125%"
         id="text5438-3"
         y="644.45642"
         x="370.73886"
         style="font-size:25px;font-style:normal;font-weight:normal;line-height:125%;letter-spacing:0px;word-spacing:0px;fill:#000000;fill-opacity:1;stroke:none;font-family:Times New Roman;-inkscape-font-specification:Times New Roman"
         xml:space="preserve"><tspan
           style="font-size:15px;font-style:italic"
           y="644.45642"
           x="370.73886"
           id="tspan5440-3"
           sodipodi:role="line">y</tspan></text>
      <text
         sodipodi:linespacing="125%"
         id="text5438-5"
         y="444.19366"
         x="412.15512"
         style="font-size:25px;font-style:normal;font-weight:normal;line-height:125%;letter-spacing:0px;word-spacing:0px;fill:#000000;fill-opacity:1;stroke:none;font-family:Times New Roman;-inkscape-font-specification:Times New Roman"
         xml:space="preserve"><tspan
           style="font-size:15px;font-style:italic"
           y="444.19366"
           x="412.15512"
           id="tspan5440-6"
           sodipodi:role="line">z</tspan></text>
      <path
         sodipodi:nodetypes="ccc"
         inkscape:connector-curvature="0"
         id="path5472"
         d="m 315.16759,531.37601 32.95623,32.95622 93.75478,0"
         style="fill:none;stroke:#000000;stroke-width:1px;stroke-linecap:butt;stroke-linejoin:miter;stroke-opacity:1;marker-end:url(#Arrow2Mend)" />
      <path
         sodipodi:nodetypes="cccc"
         inkscape:connector-curvature="0"
         id="path5474"
         d="m 376.7869,577.84302 30.05204,0 18.68782,18.68783 16.16244,0"
         style="fill:none;stroke:#000000;stroke-width:1px;stroke-linecap:butt;stroke-linejoin:miter;stroke-opacity:1;marker-end:url(#Arrow2Mend)" />
      <path
         sodipodi:nodetypes="ccc"
         inkscape:connector-curvature="0"
         id="path5476"
         d="m 386.63589,510.41534 23.35977,23.35978 32.00922,0"
         style="fill:none;stroke:#000000;stroke-width:1px;stroke-linecap:butt;stroke-linejoin:miter;stroke-opacity:1;marker-end:url(#Arrow2Mend)" />
      <g
         id="g5819">
        <rect
           transform="translate(243.49035,-46.972093)"
           y="563.88513"
           x="200.35468"
           height="30.226807"
           width="36.512363"
           id="rect5478"
           style="fill:none;stroke:#000000;stroke-width:0.75;stroke-miterlimit:4;stroke-opacity:1;stroke-dasharray:none;stroke-dashoffset:0" />
        <text
           transform="translate(243.49035,-46.972093)"
           sodipodi:linespacing="125%"
           id="text5480"
           y="575.14111"
           x="218.66212"
           style="font-size:25px;font-style:normal;font-weight:normal;line-height:125%;letter-spacing:0px;word-spacing:0px;fill:#000000;fill-opacity:1;stroke:none;font-family:Times New Roman;-inkscape-font-specification:Times New Roman"
           xml:space="preserve"><tspan
             style="font-size:10px;text-align:center;text-anchor:middle"
             y="575.14111"
             x="218.66212"
             id="tspan5482"
             sodipodi:role="line">Analog</tspan><tspan
             style="font-size:10px;text-align:center;text-anchor:middle"
             id="tspan5484"
             y="587.64111"
             x="218.66212"
             sodipodi:role="line">stage</tspan></text>
        <rect
           transform="translate(243.49035,-46.972093)"
           style="fill:none;stroke:#000000;stroke-width:0.75;stroke-miterlimit:4;stroke-opacity:1;stroke-dasharray:none;stroke-dashoffset:0"
           id="rect5784"
           width="85.610428"
           height="29.168156"
           x="200.34541"
           y="532.89124" />
        <text
           transform="translate(243.49035,-46.972093)"
           sodipodi:linespacing="125%"
           id="text5480-5"
           y="549.86792"
           x="243.09692"
           style="font-size:25px;font-style:normal;font-weight:normal;line-height:125%;letter-spacing:0px;word-spacing:0px;fill:#000000;fill-opacity:1;stroke:none;font-family:Times New Roman;-inkscape-font-specification:Times New Roman"
           xml:space="preserve"><tspan
             style="font-size:10px;text-align:center;text-anchor:middle"
             id="tspan5484-0"
             y="549.86792"
             x="243.09692"
             sodipodi:role="line">Power supply</tspan></text>
        <rect
           style="fill:none;stroke:#000000;stroke-width:0.75;stroke-miterlimit:4;stroke-opacity:1;stroke-dasharray:none;stroke-dashoffset:0"
           id="rect5478-5"
           width="36.512363"
           height="30.226807"
           x="443.84503"
           y="549.039" />
        <text
           xml:space="preserve"
           style="font-size:25px;font-style:normal;font-weight:normal;line-height:125%;letter-spacing:0px;word-spacing:0px;fill:#000000;fill-opacity:1;stroke:none;font-family:Times New Roman;-inkscape-font-specification:Times New Roman"
           x="462.15247"
           y="560.29498"
           id="text5480-2"
           sodipodi:linespacing="125%"><tspan
             sodipodi:role="line"
             id="tspan5482-6"
             x="462.15247"
             y="560.29498"
             style="font-size:10px;text-align:center;text-anchor:middle">Analog</tspan><tspan
             sodipodi:role="line"
             x="462.15247"
             y="572.79498"
             id="tspan5484-5"
             style="font-size:10px;text-align:center;text-anchor:middle">stage</tspan></text>
        <rect
           style="fill:none;stroke:#000000;stroke-width:0.75;stroke-miterlimit:4;stroke-opacity:1;stroke-dasharray:none;stroke-dashoffset:0"
           id="rect5478-7"
           width="36.512363"
           height="30.226807"
           x="443.84503"
           y="581.16492" />
        <text
           xml:space="preserve"
           style="font-size:25px;font-style:normal;font-weight:normal;line-height:125%;letter-spacing:0px;word-spacing:0px;fill:#000000;fill-opacity:1;stroke:none;font-family:Times New Roman;-inkscape-font-specification:Times New Roman"
           x="462.15247"
           y="592.4209"
           id="text5480-1"
           sodipodi:linespacing="125%"><tspan
             sodipodi:role="line"
             id="tspan5482-4"
             x="462.15247"
             y="592.4209"
             style="font-size:10px;text-align:center;text-anchor:middle">Analog</tspan><tspan
             sodipodi:role="line"
             x="462.15247"
             y="604.9209"
             id="tspan5484-6"
             style="font-size:10px;text-align:center;text-anchor:middle">stage</tspan></text>
        <text
           xml:space="preserve"
           style="font-size:25px;font-style:normal;font-weight:normal;line-height:125%;letter-spacing:0px;word-spacing:0px;fill:#000000;fill-opacity:1;stroke:none;font-family:Times New Roman;-inkscape-font-specification:Times New Roman"
           x="506.1167"
           y="560.3645"
           id="text5480-2-3"
           sodipodi:linespacing="125%"><tspan
             sodipodi:role="line"
             x="506.1167"
             y="560.3645"
             id="tspan5484-5-6"
             style="font-size:10px;text-align:center;text-anchor:middle">Digital</tspan><tspan
             id="tspan5751"
             sodipodi:role="line"
             x="506.1167"
             y="572.8645"
             style="font-size:10px;text-align:center;text-anchor:middle">stage</tspan></text>
        <rect
           style="fill:none;stroke:#000000;stroke-width:0.75;stroke-miterlimit:4;stroke-opacity:1;stroke-dasharray:none;stroke-dashoffset:0"
           id="rect5723"
           width="46.785713"
           height="94.64286"
           x="482.7092"
           y="516.90045" />
      </g>
    </g>
  </g>
</svg>
